<?xml version="1.0" encoding="UTF-8" standalone="no"?>
<!-- Created with Inkscape (http://www.inkscape.org/) -->
<svg
   xmlns:dc="http://purl.org/dc/elements/1.1/"
   xmlns:cc="http://web.resource.org/cc/"
   xmlns:rdf="http://www.w3.org/1999/02/22-rdf-syntax-ns#"
   xmlns:svg="http://www.w3.org/2000/svg"
   xmlns="http://www.w3.org/2000/svg"
   xmlns:xlink="http://www.w3.org/1999/xlink"
   xmlns:sodipodi="http://sodipodi.sourceforge.net/DTD/sodipodi-0.dtd"
   xmlns:inkscape="http://www.inkscape.org/namespaces/inkscape"
   width="100"
   height="100"
   id="svg2"
   sodipodi:version="0.32"
   inkscape:version="0.45"
   version="1.0"
   sodipodi:docbase="/home/kore/devel/ocone/doc/media"
   sodipodi:docname="ocone.svg"
   inkscape:output_extension="org.inkscape.output.svg.inkscape"
   inkscape:export-filename="/home/kore/devel/ocone/doc/media/ocone.png"
   inkscape:export-xdpi="90"
   inkscape:export-ydpi="90"
   sodipodi:modified="TRUE">
  <defs
     id="defs4">
    <linearGradient
       id="linearGradient6068">
      <stop
         style="stop-color:#204a87;stop-opacity:1;"
         offset="0"
         id="stop6070" />
      <stop
         style="stop-color:#6696db;stop-opacity:1;"
         offset="1"
         id="stop6072" />
    </linearGradient>
    <linearGradient
       id="linearGradient5081">
      <stop
         style="stop-color:#ffffff;stop-opacity:1;"
         offset="0"
         id="stop5083" />
      <stop
         id="stop5089"
         offset="0.80273974"
         style="stop-color:#ffffff;stop-opacity:1;" />
      <stop
         style="stop-color:#729fcf;stop-opacity:1;"
         offset="1"
         id="stop5085" />
    </linearGradient>
    <radialGradient
       inkscape:collect="always"
       xlink:href="#linearGradient5081"
       id="radialGradient5087"
       cx="66.46804"
       cy="61.197514"
       fx="66.46804"
       fy="61.197514"
       r="14.318913"
       gradientTransform="matrix(1,0,0,0.3395061,0,40.420582)"
       gradientUnits="userSpaceOnUse" />
    <radialGradient
       inkscape:collect="always"
       xlink:href="#linearGradient5081"
       id="radialGradient5093"
       gradientUnits="userSpaceOnUse"
       gradientTransform="matrix(1,0,0,0.3395061,0,40.420582)"
       cx="66.46804"
       cy="61.197514"
       fx="66.46804"
       fy="61.197514"
       r="14.318913" />
    <radialGradient
       inkscape:collect="always"
       xlink:href="#linearGradient5081"
       id="radialGradient5097"
       gradientUnits="userSpaceOnUse"
       gradientTransform="matrix(1,0,0,0.3395061,0,40.420582)"
       cx="66.46804"
       cy="61.197514"
       fx="66.46804"
       fy="61.197514"
       r="14.318913" />
    <linearGradient
       inkscape:collect="always"
       xlink:href="#linearGradient6068"
       id="linearGradient9976"
       gradientUnits="userSpaceOnUse"
       gradientTransform="matrix(1.1666667,0,0,1.1818182,-6.2166468,-12.541034)"
       x1="80.786957"
       y1="61.06995"
       x2="56.088726"
       y2="52.095135" />
    <linearGradient
       inkscape:collect="always"
       xlink:href="#linearGradient6068"
       id="linearGradient9988"
       gradientUnits="userSpaceOnUse"
       gradientTransform="matrix(1.1666667,0,0,1.1818182,-6.2166468,-12.541034)"
       x1="80.786957"
       y1="61.06995"
       x2="56.088726"
       y2="52.095135" />
  </defs>
  <sodipodi:namedview
     id="base"
     pagecolor="#ffffff"
     bordercolor="#666666"
     borderopacity="1.0"
     inkscape:pageopacity="0.0"
     inkscape:pageshadow="2"
     inkscape:zoom="1.4142136"
     inkscape:cx="37.015028"
     inkscape:cy="50"
     inkscape:document-units="px"
     inkscape:current-layer="layer1"
     width="100px"
     height="100px"
     inkscape:window-width="1280"
     inkscape:window-height="944"
     inkscape:window-x="0"
     inkscape:window-y="44" />
  <metadata
     id="metadata7">
    <rdf:RDF>
      <cc:Work
         rdf:about="">
        <dc:format>image/svg+xml</dc:format>
        <dc:type
           rdf:resource="http://purl.org/dc/dcmitype/StillImage" />
      </cc:Work>
    </rdf:RDF>
  </metadata>
  <g
     inkscape:label="Ebene 1"
     inkscape:groupmode="layer"
     id="layer1">
    <path
       transform="matrix(3.35438,0,0,3.397943,-171.70749,-154.26795)"
       d="M 80.786954 61.197514 A 14.318913 4.8613591 0 1 1  52.149127,61.197514 A 14.318913 4.8613591 0 1 1  80.786954 61.197514 z"
       sodipodi:ry="4.8613591"
       sodipodi:rx="14.318913"
       sodipodi:cy="61.197514"
       sodipodi:cx="66.46804"
       id="path5095"
       style="opacity:0.68069308;fill:url(#radialGradient5097);fill-opacity:1;stroke:none;stroke-width:1;stroke-linejoin:round;stroke-miterlimit:4;stroke-dasharray:none;stroke-dashoffset:0;stroke-opacity:1"
       sodipodi:type="arc" />
    <path
       sodipodi:type="arc"
       style="opacity:0.68069308;fill:url(#radialGradient5093);fill-opacity:1;stroke:none;stroke-width:1;stroke-linejoin:round;stroke-miterlimit:4;stroke-dasharray:none;stroke-dashoffset:0;stroke-opacity:1"
       id="path5091"
       sodipodi:cx="66.46804"
       sodipodi:cy="61.197514"
       sodipodi:rx="14.318913"
       sodipodi:ry="4.8613591"
       d="M 80.786954 61.197514 A 14.318913 4.8613591 0 1 1  52.149127,61.197514 A 14.318913 4.8613591 0 1 1  80.786954 61.197514 z"
       transform="matrix(2.6349979,0,0,2.6692185,-118.60079,-111.44312)" />
    <path
       transform="matrix(1.9690282,0,0,1.9946,-70.11302,-71.067783)"
       d="M 80.786954 61.197514 A 14.318913 4.8613591 0 1 1  52.149127,61.197514 A 14.318913 4.8613591 0 1 1  80.786954 61.197514 z"
       sodipodi:ry="4.8613591"
       sodipodi:rx="14.318913"
       sodipodi:cy="61.197514"
       sodipodi:cx="66.46804"
       id="path3134"
       style="opacity:0.68069308;fill:url(#radialGradient5087);fill-opacity:1;stroke:none;stroke-width:1;stroke-linejoin:round;stroke-miterlimit:4;stroke-dasharray:none;stroke-dashoffset:0;stroke-opacity:1"
       sodipodi:type="arc" />
    <path
       sodipodi:type="arc"
       style="opacity:1;fill:#204a87;fill-opacity:1;stroke:#ffffff;stroke-width:1;stroke-linejoin:round;stroke-miterlimit:4;stroke-dasharray:none;stroke-dashoffset:0;stroke-opacity:0.54726371"
       id="path2160"
       sodipodi:cx="66.46804"
       sodipodi:cy="61.197514"
       sodipodi:rx="14.318913"
       sodipodi:ry="4.8613591"
       d="M 80.786954 61.197514 A 14.318913 4.8613591 0 1 1  52.149127,61.197514 A 14.318913 4.8613591 0 1 1  80.786954 61.197514 z"
       transform="matrix(1.4612445,0,0,1.4802217,-32.85472,-40.628839)" />
    <g
       id="g9978"
       transform="matrix(0.7869815,0,0,0.7869815,8.2070683,2.6525337)">
      <path
         style="fill:url(#linearGradient9988);fill-opacity:1;stroke:none;stroke-width:1;stroke-linejoin:round;stroke-miterlimit:4;stroke-dashoffset:0;stroke-opacity:1"
         d="M 88.034802,59.783302 C 88.034802,62.954676 80.550784,65.528544 71.329402,65.528544 C 62.108022,65.528544 53.281272,62.656399 54.624003,59.783302 L 71.329402,24.038058 L 88.034802,59.783302 z "
         id="path9980"
         sodipodi:nodetypes="csscc" />
      <path
         sodipodi:nodetypes="cccc"
         id="path9982"
         d="M 88.034802,59.783302 C 88.034802,60.576145 87.567051,61.331644 86.72134,62.018919 L 71.329402,24.038058 L 88.034802,59.783302 z "
         style="fill:#142f57;fill-opacity:0.65671638;stroke:none;stroke-width:1;stroke-linejoin:round;stroke-miterlimit:4;stroke-dashoffset:0;stroke-opacity:1" />
      <path
         sodipodi:nodetypes="csscc"
         id="path9984"
         d="M 88.034802,59.783302 C 88.034802,62.954676 80.550784,65.528544 71.329402,65.528544 C 62.108022,65.528544 53.281272,62.656399 54.624003,59.783302 L 71.329402,24.038058 L 88.034802,59.783302 z "
         style="opacity:0.52227723;fill:none;fill-opacity:1;stroke:#ffffff;stroke-width:1.17421806;stroke-linejoin:round;stroke-miterlimit:4;stroke-dashoffset:0;stroke-opacity:1" />
      <path
         style="fill:#eeeeec;fill-opacity:0.65671638;stroke:none;stroke-width:1;stroke-linejoin:round;stroke-miterlimit:4;stroke-dashoffset:0;stroke-opacity:1"
         d="M 64.640092,65.03488 C 62.536808,64.720723 60.61092,64.271921 59.015162,63.733334 L 71.329402,24.038058 L 64.640092,65.03488 z "
         id="path9986"
         sodipodi:nodetypes="cccc" />
    </g>
    <g
       id="g9970"
       style="opacity:0.71534651"
       transform="matrix(1.2524953,0,0,1.2524953,-25.0684,-24.921253)">
      <path
         sodipodi:nodetypes="csscc"
         id="path3136"
         d="M 88.034802,59.783302 C 88.034802,62.954676 80.550784,65.528544 71.329402,65.528544 C 62.108022,65.528544 53.281272,62.656399 54.624003,59.783302 L 71.329402,24.038058 L 88.034802,59.783302 z "
         style="fill:url(#linearGradient9976);fill-opacity:1;stroke:none;stroke-width:1;stroke-linejoin:round;stroke-miterlimit:4;stroke-dashoffset:0;stroke-opacity:1" />
      <path
         style="fill:#142f57;fill-opacity:0.65671638;stroke:none;stroke-width:1;stroke-linejoin:round;stroke-miterlimit:4;stroke-dashoffset:0;stroke-opacity:1"
         d="M 88.034802,59.783302 C 88.034802,60.576145 87.567051,61.331644 86.72134,62.018919 L 71.329402,24.038058 L 88.034802,59.783302 z "
         id="path3141"
         sodipodi:nodetypes="cccc" />
      <path
         style="opacity:0.52227723;fill:none;fill-opacity:1;stroke:#ffffff;stroke-width:1.17421806;stroke-linejoin:round;stroke-miterlimit:4;stroke-dashoffset:0;stroke-opacity:1"
         d="M 88.034802,59.783302 C 88.034802,62.954676 80.550784,65.528544 71.329402,65.528544 C 62.108022,65.528544 53.281272,62.656399 54.624003,59.783302 L 71.329402,24.038058 L 88.034802,59.783302 z "
         id="path8014"
         sodipodi:nodetypes="csscc" />
      <path
         sodipodi:nodetypes="cccc"
         id="path9956"
         d="M 64.640092,65.03488 C 62.536808,64.720723 60.61092,64.271921 59.015162,63.733334 L 71.329402,24.038058 L 64.640092,65.03488 z "
         style="fill:#eeeeec;fill-opacity:0.65671638;stroke:none;stroke-width:1;stroke-linejoin:round;stroke-miterlimit:4;stroke-dashoffset:0;stroke-opacity:1" />
    </g>
    <path
       style="font-size:8.6926012px;font-style:normal;font-weight:normal;fill:#000000;fill-opacity:1;stroke:none;stroke-width:1px;stroke-linecap:butt;stroke-linejoin:miter;stroke-opacity:1;font-family:Bitstream Vera Sans"
       d="M 5.6190265,92.68553 C 5.2002401,92.68553 4.8691746,92.84965 4.6258289,93.17788 C 4.3824799,93.50329 4.2608063,93.95037 4.2608076,94.51912 C 4.2608063,95.08788 4.3810651,95.53637 4.6215845,95.86461 C 4.8649301,96.19002 5.1974105,96.35272 5.6190265,96.35272 C 6.034978,96.35272 6.3646287,96.1886 6.6079797,95.86036 C 6.8513234,95.53213 6.972997,95.08505 6.973001,94.51912 C 6.972997,93.95603 6.8513234,93.51037 6.6079797,93.18213 C 6.3646287,92.85106 6.034978,92.68553 5.6190265,92.68553 M 5.6190265,92.0234 C 6.2981327,92.0234 6.831516,92.24411 7.2191782,92.68553 C 7.6068319,93.12695 7.8006609,93.73815 7.8006657,94.51912 C 7.8006609,95.29727 7.6068319,95.90847 7.2191782,96.35272 C 6.831516,96.79414 6.2981327,97.01485 5.6190265,97.01485 C 4.9370855,97.01485 4.4022873,96.79414 4.0146304,96.35272 C 3.629801,95.90847 3.4373869,95.29727 3.4373874,94.51912 C 3.4373869,93.73815 3.629801,93.12695 4.0146304,92.68553 C 4.4022873,92.24411 4.9370855,92.0234 5.6190265,92.0234 M 9.846483,96.1787 L 9.846483,98.69989 L 9.0612627,98.69989 L 9.0612627,92.138 L 9.846483,92.138 L 9.846483,92.85955 C 10.010599,92.57659 10.217162,92.3672 10.46617,92.23137 C 10.718004,92.09273 11.017944,92.0234 11.36599,92.0234 C 11.94323,92.0234 12.411532,92.2526 12.770898,92.71099 C 13.133085,93.1694 13.314181,93.77211 13.314186,94.51912 C 13.314181,95.26614 13.133085,95.86885 12.770898,96.32725 C 12.411532,96.78565 11.94323,97.01485 11.36599,97.01485 C 11.017944,97.01485 10.718004,96.94694 10.46617,96.81112 C 10.217162,96.67247 10.010599,96.46166 9.846483,96.1787 M 12.503499,94.51912 C 12.503495,93.94471 12.384651,93.4948 12.146966,93.16939 C 11.912104,92.84116 11.588112,92.67704 11.174991,92.67704 C 10.761863,92.67704 10.436457,92.84116 10.198771,93.16939 C 9.9639106,93.4948 9.8464814,93.94471 9.846483,94.51912 C 9.8464814,95.09354 9.9639106,95.54486 10.198771,95.8731 C 10.436457,96.1985 10.761863,96.36121 11.174991,96.36121 C 11.588112,96.36121 11.912104,96.1985 12.146966,95.8731 C 12.384651,95.54486 12.503495,95.09354 12.503499,94.51912 M 18.674907,94.31964 L 18.674907,94.70163 L 15.084115,94.70163 C 15.11807,95.23926 15.279358,95.64956 15.567981,95.93252 C 15.85943,96.21265 16.264066,96.35272 16.781889,96.35272 C 17.081826,96.35272 17.371862,96.31593 17.651998,96.24236 C 17.934956,96.16879 18.215089,96.05844 18.492396,95.9113 L 18.492396,96.64983 C 18.212259,96.76867 17.925053,96.85922 17.630776,96.92147 C 17.336492,96.98372 17.037967,97.01485 16.7352,97.01485 C 15.976859,97.01485 15.375565,96.79414 14.931316,96.35272 C 14.489894,95.9113 14.269184,95.31425 14.269184,94.56157 C 14.269184,93.78342 14.478575,93.16657 14.89736,92.71099 C 15.318973,92.2526 15.886311,92.0234 16.599378,92.0234 C 17.23887,92.0234 17.743957,92.22996 18.114641,92.64308 C 18.488147,93.05338 18.674902,93.61223 18.674907,94.31964 M 17.893931,94.09043 C 17.888267,93.66317 17.768009,93.3222 17.533154,93.06753 C 17.301121,92.81287 16.992693,92.68553 16.607867,92.68553 C 16.172103,92.68553 15.822645,92.80862 15.559492,93.05479 C 15.299165,93.30097 15.149195,93.6476 15.109582,94.09468 L 17.893931,94.09043 M 23.908293,94.02252 L 23.908293,96.89176 L 23.127317,96.89176 L 23.127317,94.04799 C 23.127313,93.59808 23.039595,93.26136 22.864162,93.03782 C 22.688722,92.81428 22.425568,92.70251 22.074698,92.70251 C 21.653081,92.70251 21.320601,92.83692 21.077256,93.10573 C 20.833906,93.37454 20.712233,93.74098 20.712234,94.20503 L 20.712234,96.89176 L 19.927014,96.89176 L 19.927014,92.138 L 20.712234,92.138 L 20.712234,92.87653 C 20.898988,92.59074 21.118283,92.3771 21.370122,92.23562 C 21.624785,92.09414 21.917651,92.0234 22.248719,92.0234 C 22.794833,92.0234 23.207957,92.19318 23.488094,92.53273 C 23.768222,92.86946 23.908288,93.36606 23.908293,94.02252 M 31.662876,92.32051 L 31.662876,93.05055 C 31.442161,92.92888 31.220036,92.83833 30.9965,92.7789 C 30.775786,92.71666 30.552246,92.68553 30.325879,92.68553 C 29.819374,92.68553 29.426057,92.84682 29.145927,93.16939 C 28.865793,93.48914 28.725726,93.93905 28.725728,94.51912 C 28.725726,95.0992 28.865793,95.55052 29.145927,95.8731 C 29.426057,96.19285 29.819374,96.35272 30.325879,96.35272 C 30.552246,96.35272 30.775786,96.32301 30.9965,96.26359 C 31.220036,96.20134 31.442161,96.10937 31.662876,95.9877 L 31.662876,96.70925 C 31.444991,96.81112 31.218622,96.88752 30.983767,96.93845 C 30.751734,96.98938 30.504142,97.01485 30.240991,97.01485 C 29.525094,97.01485 28.95634,96.7899 28.534728,96.33998 C 28.113114,95.89008 27.902307,95.28312 27.902307,94.51912 C 27.902307,93.74381 28.114528,93.13403 28.538973,92.68977 C 28.966244,92.24553 29.550561,92.0234 30.291924,92.0234 C 30.532439,92.0234 30.767297,92.04887 30.9965,92.0998 C 31.225696,92.1479 31.447821,92.22147 31.662876,92.32051 M 34.871666,92.68553 C 34.45288,92.68553 34.121814,92.84965 33.878469,93.17788 C 33.63512,93.50329 33.513446,93.95037 33.513447,94.51912 C 33.513446,95.08788 33.633705,95.53637 33.874224,95.86461 C 34.11757,96.19002 34.45005,96.35272 34.871666,96.35272 C 35.287618,96.35272 35.617268,96.1886 35.860619,95.86036 C 36.103963,95.53213 36.225637,95.08505 36.225641,94.51912 C 36.225637,93.95603 36.103963,93.51037 35.860619,93.18213 C 35.617268,92.85106 35.287618,92.68553 34.871666,92.68553 M 34.871666,92.0234 C 35.550772,92.0234 36.084156,92.24411 36.471818,92.68553 C 36.859472,93.12695 37.053301,93.73815 37.053305,94.51912 C 37.053301,95.29727 36.859472,95.90847 36.471818,96.35272 C 36.084156,96.79414 35.550772,97.01485 34.871666,97.01485 C 34.189725,97.01485 33.654927,96.79414 33.26727,96.35272 C 32.882441,95.90847 32.690027,95.29727 32.690027,94.51912 C 32.690027,93.73815 32.882441,93.12695 33.26727,92.68553 C 33.654927,92.24411 34.189725,92.0234 34.871666,92.0234 M 42.295184,94.02252 L 42.295184,96.89176 L 41.514208,96.89176 L 41.514208,94.04799 C 41.514204,93.59808 41.426485,93.26136 41.251053,93.03782 C 41.075613,92.81428 40.812458,92.70251 40.461588,92.70251 C 40.039972,92.70251 39.707491,92.83692 39.464146,93.10573 C 39.220797,93.37454 39.099123,93.74098 39.099125,94.20503 L 39.099125,96.89176 L 38.313904,96.89176 L 38.313904,92.138 L 39.099125,92.138 L 39.099125,92.87653 C 39.285878,92.59074 39.505174,92.3771 39.757012,92.23562 C 40.011676,92.09414 40.304541,92.0234 40.63561,92.0234 C 41.181723,92.0234 41.594848,92.19318 41.874985,92.53273 C 42.155113,92.86946 42.295179,93.36606 42.295184,94.02252 M 44.633867,90.78826 L 44.633867,92.138 L 46.242508,92.138 L 46.242508,92.74495 L 44.633867,92.74495 L 44.633867,95.32557 C 44.633866,95.71322 44.686214,95.96223 44.790912,96.07259 C 44.898435,96.18294 45.114901,96.23812 45.44031,96.23812 L 46.242508,96.23812 L 46.242508,96.89176 L 45.44031,96.89176 C 44.837598,96.89176 44.421644,96.77999 44.192446,96.55645 C 43.963246,96.33008 43.848646,95.91979 43.848647,95.32557 L 43.848647,92.74495 L 43.275648,92.74495 L 43.275648,92.138 L 43.848647,92.138 L 43.848647,90.78826 L 44.633867,90.78826 M 51.340074,94.31964 L 51.340074,94.70163 L 47.749282,94.70163 C 47.783236,95.23926 47.944525,95.64956 48.233148,95.93252 C 48.524597,96.21265 48.929232,96.35272 49.447056,96.35272 C 49.746993,96.35272 50.037029,96.31593 50.317165,96.24236 C 50.600123,96.16879 50.880255,96.05844 51.157563,95.9113 L 51.157563,96.64983 C 50.877426,96.76867 50.590219,96.85922 50.295943,96.92147 C 50.001658,96.98372 49.703134,97.01485 49.400367,97.01485 C 48.642026,97.01485 48.040732,96.79414 47.596483,96.35272 C 47.155061,95.9113 46.93435,95.31425 46.934351,94.56157 C 46.93435,93.78342 47.143742,93.16657 47.562527,92.71099 C 47.984139,92.2526 48.551478,92.0234 49.264545,92.0234 C 49.904037,92.0234 50.409124,92.22996 50.779808,92.64308 C 51.153314,93.05338 51.340069,93.61223 51.340074,94.31964 M 50.559098,94.09043 C 50.553434,93.66317 50.433175,93.3222 50.198321,93.06753 C 49.966288,92.81287 49.65786,92.68553 49.273034,92.68553 C 48.83727,92.68553 48.487812,92.80862 48.224659,93.05479 C 47.964332,93.30097 47.814362,93.6476 47.774749,94.09468 L 50.559098,94.09043 M 56.573458,94.02252 L 56.573458,96.89176 L 55.792482,96.89176 L 55.792482,94.04799 C 55.792478,93.59808 55.70476,93.26136 55.529327,93.03782 C 55.353887,92.81428 55.090733,92.70251 54.739863,92.70251 C 54.318246,92.70251 53.985766,92.83692 53.742421,93.10573 C 53.499071,93.37454 53.377398,93.74098 53.377399,94.20503 L 53.377399,96.89176 L 52.592179,96.89176 L 52.592179,92.138 L 53.377399,92.138 L 53.377399,92.87653 C 53.564153,92.59074 53.783448,92.3771 54.035286,92.23562 C 54.28995,92.09414 54.582816,92.0234 54.913884,92.0234 C 55.459998,92.0234 55.873122,92.19318 56.153259,92.53273 C 56.433387,92.86946 56.573453,93.36606 56.573458,94.02252 M 58.912142,90.78826 L 58.912142,92.138 L 60.520783,92.138 L 60.520783,92.74495 L 58.912142,92.74495 L 58.912142,95.32557 C 58.91214,95.71322 58.964488,95.96223 59.069186,96.07259 C 59.17671,96.18294 59.393176,96.23812 59.718584,96.23812 L 60.520783,96.23812 L 60.520783,96.89176 L 59.718584,96.89176 C 59.115873,96.89176 58.699919,96.77999 58.470721,96.55645 C 58.24152,96.33008 58.126921,95.91979 58.126922,95.32557 L 58.126922,92.74495 L 57.553923,92.74495 L 57.553923,92.138 L 58.126922,92.138 L 58.126922,90.78826 L 58.912142,90.78826 M 68.27112,94.02252 L 68.27112,96.89176 L 67.490145,96.89176 L 67.490145,94.04799 C 67.490141,93.59808 67.402422,93.26136 67.22699,93.03782 C 67.05155,92.81428 66.788395,92.70251 66.437525,92.70251 C 66.015909,92.70251 65.683428,92.83692 65.440083,93.10573 C 65.196734,93.37454 65.07506,93.74098 65.075062,94.20503 L 65.075062,96.89176 L 64.289841,96.89176 L 64.289841,92.138 L 65.075062,92.138 L 65.075062,92.87653 C 65.261815,92.59074 65.48111,92.3771 65.732949,92.23562 C 65.987612,92.09414 66.280478,92.0234 66.611547,92.0234 C 67.15766,92.0234 67.570785,92.19318 67.850921,92.53273 C 68.13105,92.86946 68.271116,93.36606 68.27112,94.02252 M 73.903481,94.31964 L 73.903481,94.70163 L 70.31269,94.70163 C 70.346644,95.23926 70.507933,95.64956 70.796556,95.93252 C 71.088005,96.21265 71.49264,96.35272 72.010464,96.35272 C 72.310401,96.35272 72.600437,96.31593 72.880573,96.24236 C 73.163531,96.16879 73.443663,96.05844 73.720971,95.9113 L 73.720971,96.64983 C 73.440834,96.76867 73.153627,96.85922 72.859351,96.92147 C 72.565066,96.98372 72.266541,97.01485 71.963775,97.01485 C 71.205434,97.01485 70.60414,96.79414 70.15989,96.35272 C 69.718469,95.9113 69.497758,95.31425 69.497759,94.56157 C 69.497758,93.78342 69.70715,93.16657 70.125935,92.71099 C 70.547547,92.2526 71.114886,92.0234 71.827953,92.0234 C 72.467444,92.0234 72.972532,92.22996 73.343216,92.64308 C 73.716722,93.05338 73.903477,93.61223 73.903481,94.31964 M 73.122506,94.09043 C 73.116842,93.66317 72.996583,93.3222 72.761729,93.06753 C 72.529696,92.81287 72.221267,92.68553 71.836442,92.68553 C 71.400678,92.68553 71.05122,92.80862 70.788067,93.05479 C 70.52774,93.30097 70.37777,93.6476 70.338157,94.09468 L 73.122506,94.09043 M 75.957792,90.78826 L 75.957792,92.138 L 77.566433,92.138 L 77.566433,92.74495 L 75.957792,92.74495 L 75.957792,95.32557 C 75.957791,95.71322 76.010139,95.96223 76.114837,96.07259 C 76.22236,96.18294 76.438826,96.23812 76.764235,96.23812 L 77.566433,96.23812 L 77.566433,96.89176 L 76.764235,96.89176 C 76.161524,96.89176 75.745569,96.77999 75.516371,96.55645 C 75.287171,96.33008 75.172571,95.91979 75.172572,95.32557 L 75.172572,92.74495 L 74.599574,92.74495 L 74.599574,92.138 L 75.172572,92.138 L 75.172572,90.78826 L 75.957792,90.78826 M 78.143672,92.138 L 78.924648,92.138 L 79.900868,95.84763 L 80.872844,92.138 L 81.793886,92.138 L 82.770106,95.84763 L 83.742081,92.138 L 84.523057,92.138 L 83.279438,96.89176 L 82.358395,96.89176 L 81.335487,92.99537 L 80.308334,96.89176 L 79.387292,96.89176 L 78.143672,92.138 M 87.553582,92.68553 C 87.134795,92.68553 86.80373,92.84965 86.560384,93.17788 C 86.317035,93.50329 86.195361,93.95037 86.195363,94.51912 C 86.195361,95.08788 86.31562,95.53637 86.55614,95.86461 C 86.799485,96.19002 87.131966,96.35272 87.553582,96.35272 C 87.969533,96.35272 88.299184,96.1886 88.542535,95.86036 C 88.785878,95.53213 88.907552,95.08505 88.907556,94.51912 C 88.907552,93.95603 88.785878,93.51037 88.542535,93.18213 C 88.299184,92.85106 87.969533,92.68553 87.553582,92.68553 M 87.553582,92.0234 C 88.232688,92.0234 88.766071,92.24411 89.153733,92.68553 C 89.541387,93.12695 89.735216,93.73815 89.735221,94.51912 C 89.735216,95.29727 89.541387,95.90847 89.153733,96.35272 C 88.766071,96.79414 88.232688,97.01485 87.553582,97.01485 C 86.871641,97.01485 86.336842,96.79414 85.949185,96.35272 C 85.564356,95.90847 85.371942,95.29727 85.371942,94.51912 C 85.371942,93.73815 85.564356,93.12695 85.949185,92.68553 C 86.336842,92.24411 86.871641,92.0234 87.553582,92.0234 M 93.780168,92.86804 C 93.692447,92.81711 93.59624,92.78032 93.491547,92.75768 C 93.389677,92.73222 93.276493,92.71949 93.151992,92.71948 C 92.710569,92.71949 92.371014,92.8638 92.133328,93.15242 C 91.898468,93.43821 91.781038,93.84992 91.78104,94.38755 L 91.78104,96.89176 L 90.99582,96.89176 L 90.99582,92.138 L 91.78104,92.138 L 91.78104,92.87653 C 91.945156,92.58791 92.158793,92.37427 92.421949,92.23562 C 92.685102,92.09414 93.004849,92.0234 93.381192,92.0234 C 93.434951,92.0234 93.494373,92.02765 93.559458,92.03613 C 93.624536,92.04179 93.696691,92.0517 93.775924,92.06584 L 93.780168,92.86804 M 94.578126,90.28742 L 95.363346,90.28742 L 95.363346,94.18806 L 97.69354,92.138 L 98.690982,92.138 L 96.169788,94.36208 L 98.797093,96.89176 L 97.778429,96.89176 L 95.363346,94.57006 L 95.363346,96.89176 L 94.578126,96.89176 L 94.578126,90.28742"
       id="text12906" />
    <path
       style="font-size:31.07493401px;font-style:normal;font-weight:normal;fill:#000000;fill-opacity:1;stroke:none;stroke-width:1px;stroke-linecap:butt;stroke-linejoin:miter;stroke-opacity:1;font-family:Bitstream Vera Sans"
       d="M 11.45788,73.247005 C 9.9607718,73.24702 8.777255,73.83372 7.9073255,75.007108 C 7.0373842,76.170407 6.6024164,77.768661 6.6024211,79.801873 C 6.6024164,81.835103 7.0323264,83.438414 7.8921522,84.611812 C 8.7620817,85.775101 9.9506563,86.356744 11.45788,86.356742 C 12.944853,86.356744 14.123312,85.770044 14.99326,84.596639 C 15.863183,83.423241 16.29815,81.824988 16.298165,79.801873 C 16.29815,77.788892 15.863183,76.195696 14.99326,75.022282 C 14.123312,73.838778 12.944853,73.24702 11.45788,73.247005 M 11.45788,70.879969 C 13.885597,70.879986 15.792374,71.668997 17.178217,73.247005 C 18.564029,74.825042 19.256942,77.009996 19.25696,79.801873 C 19.256942,82.583652 18.564029,84.768606 17.178217,86.356742 C 15.792374,87.934767 13.885597,88.723778 11.45788,88.723778 C 9.0200277,88.723778 7.1081929,87.934767 5.7223693,86.356742 C 4.3466536,84.768606 3.6587977,82.583652 3.6587994,79.801873 C 3.6587977,77.009996 4.3466536,74.825042 5.7223693,73.247005 C 7.1081929,71.668997 9.0200277,70.879986 11.45788,70.879969 M 40.954789,67.374935 L 40.954789,70.606849 C 39.922985,69.645892 38.820393,68.927689 37.647008,68.452239 C 36.483706,67.976829 35.244553,67.739114 33.929548,67.739094 C 31.339959,67.739114 29.357316,68.533183 27.981611,70.121303 C 26.605892,71.699344 25.918036,73.985453 25.918041,76.979638 C 25.918036,79.96373 26.605892,82.24984 27.981611,83.837973 C 29.357316,85.416 31.339959,86.205011 33.929548,86.205009 C 35.244553,86.205011 36.483706,85.967296 37.647008,85.491864 C 38.820393,85.016437 39.922985,84.298234 40.954789,83.337254 L 40.954789,86.538822 C 39.882523,87.267142 38.744526,87.81338 37.540795,88.177539 C 36.347146,88.541698 35.082705,88.723778 33.747468,88.723778 C 30.318291,88.723778 27.617445,87.676821 25.644922,85.582904 C 23.672389,83.478876 22.686125,80.611124 22.686127,76.979638 C 22.686125,73.338059 23.672389,70.470307 25.644922,68.376373 C 27.617445,66.272363 30.318291,65.220348 33.747468,65.220325 C 35.102936,65.220348 36.377493,65.402427 37.571141,65.766564 C 38.774873,66.12063 39.902754,66.656753 40.954789,67.374935 M 52.183038,73.247005 C 50.685931,73.24702 49.502414,73.83372 48.632484,75.007108 C 47.762543,76.170407 47.327575,77.768661 47.32758,79.801873 C 47.327575,81.835103 47.757485,83.438414 48.617311,84.611812 C 49.48724,85.775101 50.675815,86.356744 52.183038,86.356742 C 53.670011,86.356744 54.84847,85.770044 55.718419,84.596639 C 56.588341,83.423241 57.023309,81.824988 57.023323,79.801873 C 57.023309,77.788892 56.588341,76.195696 55.718419,75.022282 C 54.84847,73.838778 53.670011,73.24702 52.183038,73.247005 M 52.183038,70.879969 C 54.610756,70.879986 56.517533,71.668997 57.903375,73.247005 C 59.289187,74.825042 59.982101,77.009996 59.982118,79.801873 C 59.982101,82.583652 59.289187,84.768606 57.903375,86.356742 C 56.517533,87.934767 54.610756,88.723778 52.183038,88.723778 C 49.745186,88.723778 47.833352,87.934767 46.447528,86.356742 C 45.071812,84.768606 44.383956,82.583652 44.383958,79.801873 C 44.383956,77.009996 45.071812,74.825042 46.447528,73.247005 C 47.833352,71.668997 49.745186,70.879986 52.183038,70.879969 M 78.721151,78.026596 L 78.721151,88.283752 L 75.929262,88.283752 L 75.929262,78.117636 C 75.929248,76.509278 75.615667,75.30553 74.988517,74.506389 C 74.361341,73.707276 73.420597,73.307713 72.166282,73.307698 C 70.659058,73.307713 69.470483,73.7882 68.600555,74.749162 C 67.730612,75.710151 67.295645,77.020112 67.29565,78.679049 L 67.29565,88.283752 L 64.488588,88.283752 L 64.488588,71.289648 L 67.29565,71.289648 L 67.29565,73.929803 C 67.963269,72.908149 68.747223,72.144427 69.647513,71.638634 C 70.557902,71.132874 71.60486,70.879986 72.788388,70.879969 C 74.740673,70.879986 76.217541,71.486918 77.218993,72.700766 C 78.220415,73.904529 78.721134,75.679804 78.721151,78.026596 M 98.856126,79.088728 L 98.856126,80.454326 L 86.019508,80.454326 C 86.14089,82.376284 86.717475,83.843036 87.749265,84.854585 C 88.791158,85.856026 90.237679,86.356744 92.088831,86.356742 C 93.161066,86.356744 94.197908,86.225242 95.199359,85.962236 C 96.210898,85.699235 97.212335,85.304729 98.203674,84.778718 L 98.203674,87.418874 C 97.20222,87.843727 96.175494,88.167424 95.123493,88.389966 C 94.071464,88.612507 93.004276,88.723778 91.921925,88.723778 C 89.210953,88.723778 87.061403,87.934767 85.473269,86.356742 C 83.895242,84.778722 83.106231,82.644345 83.106233,79.953607 C 83.106231,77.171845 83.85478,74.966659 85.351882,73.338044 C 86.859092,71.699344 88.887256,70.879986 91.436379,70.879969 C 93.722478,70.879986 95.5281,71.61842 96.85325,73.095272 C 98.188484,74.562038 98.856109,76.559855 98.856126,79.088728 M 96.064238,78.269369 C 96.043992,76.741935 95.614082,75.523013 94.774506,74.612602 C 93.94502,73.702218 92.842427,73.24702 91.466725,73.247005 C 89.908924,73.24702 88.659656,73.687045 87.718918,74.567082 C 86.788283,75.447147 86.25216,76.686299 86.110548,78.284543 L 96.064238,78.269369"
       id="text12910" />
  </g>
</svg>
