<?xml version="1.0" encoding="UTF-8" standalone="no"?>
<!-- Created with Inkscape (http://www.inkscape.org/) -->
<svg
   xmlns:dc="http://purl.org/dc/elements/1.1/"
   xmlns:cc="http://web.resource.org/cc/"
   xmlns:rdf="http://www.w3.org/1999/02/22-rdf-syntax-ns#"
   xmlns:svg="http://www.w3.org/2000/svg"
   xmlns="http://www.w3.org/2000/svg"
   xmlns:xlink="http://www.w3.org/1999/xlink"
   xmlns:sodipodi="http://sodipodi.sourceforge.net/DTD/sodipodi-0.dtd"
   xmlns:inkscape="http://www.inkscape.org/namespaces/inkscape"
   width="128"
   height="128"
   id="svg2"
   sodipodi:version="0.32"
   inkscape:version="0.45"
   version="1.0"
   sodipodi:docname="ocone.svg"
   sodipodi:docbase="/home/kore/devel/ocone/doc/media"
   inkscape:output_extension="org.inkscape.output.svg.inkscape"
   sodipodi:modified="true">
  <defs
     id="defs4">
    <linearGradient
       inkscape:collect="always"
       id="linearGradient6229">
      <stop
         style="stop-color:#eeeeec;stop-opacity:1;"
         offset="0"
         id="stop6231" />
      <stop
         style="stop-color:#eeeeec;stop-opacity:0;"
         offset="1"
         id="stop6233" />
    </linearGradient>
    <linearGradient
       inkscape:collect="always"
       id="linearGradient6221">
      <stop
         style="stop-color:#eeeeec;stop-opacity:1;"
         offset="0"
         id="stop6223" />
      <stop
         style="stop-color:#eeeeec;stop-opacity:0;"
         offset="1"
         id="stop6225" />
    </linearGradient>
    <linearGradient
       id="linearGradient4254">
      <stop
         style="stop-color:#b3cae7;stop-opacity:1;"
         offset="0"
         id="stop4256" />
      <stop
         id="stop4264"
         offset="0.28323174"
         style="stop-color:#3465a4;stop-opacity:1;" />
      <stop
         id="stop4262"
         offset="0.75256765"
         style="stop-color:#3465a4;stop-opacity:1;" />
      <stop
         style="stop-color:#cbdbef;stop-opacity:1;"
         offset="1"
         id="stop4258" />
    </linearGradient>
    <linearGradient
       id="linearGradient9250">
      <stop
         style="stop-color:#8baedb;stop-opacity:1;"
         offset="0"
         id="stop9252" />
      <stop
         style="stop-color:#3465a4;stop-opacity:1;"
         offset="1"
         id="stop9254" />
    </linearGradient>
    <linearGradient
       inkscape:collect="always"
       id="linearGradient5346">
      <stop
         style="stop-color:#204a87;stop-opacity:1;"
         offset="0"
         id="stop5348" />
      <stop
         style="stop-color:#204a87;stop-opacity:0;"
         offset="1"
         id="stop5350" />
    </linearGradient>
    <linearGradient
       inkscape:collect="always"
       id="linearGradient5338">
      <stop
         style="stop-color:#3465a4;stop-opacity:1;"
         offset="0"
         id="stop5340" />
      <stop
         style="stop-color:#3465a4;stop-opacity:0;"
         offset="1"
         id="stop5342" />
    </linearGradient>
    <linearGradient
       gradientUnits="userSpaceOnUse"
       y2="48.404987"
       x2="23.71875"
       y1="14.463861"
       x1="19.450956"
       id="linearGradient5172"
       xlink:href="#linearGradient5166"
       inkscape:collect="always" />
    <radialGradient
       r="22.597088"
       fy="10.853651"
       fx="20.089987"
       cy="10.853651"
       cx="20.089987"
       gradientTransform="matrix(1.790269,0,0,1.769263,-15.81394,-11.94997)"
       gradientUnits="userSpaceOnUse"
       id="radialGradient5363"
       xlink:href="#linearGradient5196"
       inkscape:collect="always" />
    <radialGradient
       r="22.597088"
       fy="14.210698"
       fx="23.688078"
       cy="14.210698"
       cx="23.688078"
       gradientTransform="matrix(2.135667,0,0,2.110607,-26.90176,-15.66914)"
       gradientUnits="userSpaceOnUse"
       id="radialGradient5361"
       xlink:href="#linearGradient5188"
       inkscape:collect="always" />
    <linearGradient
       gradientUnits="userSpaceOnUse"
       y2="18.389904"
       x2="38.714096"
       y1="10.611729"
       x1="25.632622"
       id="linearGradient5182"
       xlink:href="#linearGradient5176"
       inkscape:collect="always" />
    <linearGradient
       y2="14.412428"
       x2="23.585091"
       y1="36.509514"
       x1="22.008699"
       gradientUnits="userSpaceOnUse"
       id="linearGradient5170"
       xlink:href="#linearGradient5162"
       inkscape:collect="always" />
    <linearGradient
       gradientUnits="userSpaceOnUse"
       y2="28.554564"
       x2="32.600704"
       y1="20.246058"
       x1="24.365993"
       id="linearGradient5168"
       xlink:href="#linearGradient5162"
       inkscape:collect="always" />
    <radialGradient
       gradientUnits="userSpaceOnUse"
       gradientTransform="matrix(1,0,0,0.325103,0,27.44386)"
       r="21.478369"
       fy="40.663769"
       fx="24.837126"
       cy="40.663769"
       cx="24.837126"
       id="radialGradient5156"
       xlink:href="#linearGradient5150"
       inkscape:collect="always" />
    <radialGradient
       r="20.530962"
       fy="35.87817"
       fx="24.44569"
       cy="35.87817"
       cx="24.44569"
       gradientTransform="matrix(2.049266,0,0,2.049266,-25.65002,-37.31089)"
       gradientUnits="userSpaceOnUse"
       id="radialGradient1366"
       xlink:href="#linearGradient11520"
       inkscape:collect="always" />
    <radialGradient
       r="6.5659914"
       fy="44.565483"
       fx="30.203562"
       cy="44.565483"
       cx="30.203562"
       gradientTransform="matrix(1,0,0,0.338462,0,29.48178)"
       gradientUnits="userSpaceOnUse"
       id="radialGradient1356"
       xlink:href="#linearGradient11508"
       inkscape:collect="always" />
    <radialGradient
       r="3.8335035"
       fy="15.048258"
       fx="27.577173"
       cy="15.048258"
       cx="27.577173"
       gradientTransform="matrix(1.243453,0,0,1.243453,-6.713754,-3.742847)"
       gradientUnits="userSpaceOnUse"
       id="radialGradient1354"
       xlink:href="#linearGradient11494"
       inkscape:collect="always" />
    <radialGradient
       r="3.8335035"
       fy="16.049133"
       fx="27.577173"
       cy="16.049133"
       cx="27.577173"
       gradientTransform="matrix(1.243453,0,0,1.243453,-6.713754,-3.742847)"
       gradientUnits="userSpaceOnUse"
       id="radialGradient1352"
       xlink:href="#linearGradient11494"
       inkscape:collect="always" />
    <radialGradient
       r="20.530962"
       fy="35.87817"
       fx="24.44569"
       cy="35.87817"
       cx="24.44569"
       gradientTransform="matrix(1.995058,0,0,1.995058,-24.32488,-35.70087)"
       gradientUnits="userSpaceOnUse"
       id="radialGradient1350"
       xlink:href="#linearGradient11520"
       inkscape:collect="always" />
    <radialGradient
       r="6.5659914"
       fy="44.565483"
       fx="30.203562"
       cy="44.565483"
       cx="30.203562"
       gradientTransform="matrix(1,0,0,0.338462,0,29.48178)"
       gradientUnits="userSpaceOnUse"
       id="radialGradient1348"
       xlink:href="#linearGradient11508"
       inkscape:collect="always" />
    <radialGradient
       inkscape:collect="always"
       xlink:href="#linearGradient11508"
       id="radialGradient11532"
       gradientUnits="userSpaceOnUse"
       gradientTransform="matrix(1,0,0,0.338462,0,29.48178)"
       cx="30.203562"
       cy="44.565483"
       fx="30.203562"
       fy="44.565483"
       r="6.5659914" />
    <radialGradient
       inkscape:collect="always"
       xlink:href="#linearGradient11520"
       id="radialGradient11526"
       cx="24.44569"
       cy="35.87817"
       fx="24.44569"
       fy="35.87817"
       r="20.530962"
       gradientUnits="userSpaceOnUse"
       gradientTransform="matrix(1.995058,0,0,1.995058,-24.32488,-35.70087)" />
    <radialGradient
       inkscape:collect="always"
       xlink:href="#linearGradient11508"
       id="radialGradient11514"
       cx="30.203562"
       cy="44.565483"
       fx="30.203562"
       fy="44.565483"
       r="6.5659914"
       gradientTransform="matrix(1,0,0,0.338462,0,29.48178)"
       gradientUnits="userSpaceOnUse" />
    <radialGradient
       inkscape:collect="always"
       xlink:href="#linearGradient11494"
       id="radialGradient11504"
       gradientUnits="userSpaceOnUse"
       gradientTransform="matrix(1.243453,0,0,1.243453,-6.713754,-3.742847)"
       cx="27.577173"
       cy="16.049133"
       fx="27.577173"
       fy="16.049133"
       r="3.8335035" />
    <radialGradient
       inkscape:collect="always"
       xlink:href="#linearGradient11494"
       id="radialGradient11500"
       cx="27.577173"
       cy="15.048258"
       fx="27.577173"
       fy="15.048258"
       r="3.8335035"
       gradientUnits="userSpaceOnUse"
       gradientTransform="matrix(1.243453,0,0,1.243453,-6.713754,-3.742847)" />
    <radialGradient
       inkscape:collect="always"
       xlink:href="#linearGradient11399"
       id="radialGradient11441"
       gradientUnits="userSpaceOnUse"
       gradientTransform="matrix(1,0,0,0.487395,0,20.06483)"
       cx="12.071428"
       cy="39.142857"
       fx="12.071428"
       fy="39.142857"
       r="8.5" />
    <linearGradient
       inkscape:collect="always"
       xlink:href="#linearGradient11415"
       id="linearGradient11439"
       gradientUnits="userSpaceOnUse"
       gradientTransform="translate(-60.85714,0.428571)"
       x1="13.267134"
       y1="19.774456"
       x2="26.758644"
       y2="33.462429" />
    <linearGradient
       inkscape:collect="always"
       xlink:href="#linearGradient11415"
       id="linearGradient11427"
       gradientUnits="userSpaceOnUse"
       x1="9.6957054"
       y1="9.3458843"
       x2="35.679932"
       y2="39.033859"
       gradientTransform="translate(-60.57143,0)" />
    <linearGradient
       inkscape:collect="always"
       xlink:href="#linearGradient11415"
       id="linearGradient11425"
       gradientUnits="userSpaceOnUse"
       x1="15.82836"
       y1="3.774456"
       x2="43.615788"
       y2="34.462429"
       gradientTransform="translate(-60.28571,-0.285714)" />
    <linearGradient
       inkscape:collect="always"
       id="linearGradient11399">
      <stop
         style="stop-color:#000000;stop-opacity:1;"
         offset="0"
         id="stop11401" />
      <stop
         style="stop-color:#000000;stop-opacity:0;"
         offset="1"
         id="stop11403" />
    </linearGradient>
    <linearGradient
       id="linearGradient11415">
      <stop
         style="stop-color:#204a87;stop-opacity:0.0000000;"
         offset="0.0000000"
         id="stop11417" />
      <stop
         id="stop11423"
         offset="0.50000000"
         style="stop-color:#204a87;stop-opacity:1.0000000;" />
      <stop
         style="stop-color:#204a87;stop-opacity:0;"
         offset="1"
         id="stop11419" />
    </linearGradient>
    <linearGradient
       inkscape:collect="always"
       id="linearGradient11494">
      <stop
         style="stop-color:#ef2929;stop-opacity:1;"
         offset="0"
         id="stop11496" />
      <stop
         style="stop-color:#ef2929;stop-opacity:0;"
         offset="1"
         id="stop11498" />
    </linearGradient>
    <linearGradient
       inkscape:collect="always"
       id="linearGradient11508">
      <stop
         style="stop-color:#000000;stop-opacity:1;"
         offset="0"
         id="stop11510" />
      <stop
         style="stop-color:#000000;stop-opacity:0;"
         offset="1"
         id="stop11512" />
    </linearGradient>
    <linearGradient
       id="linearGradient11520">
      <stop
         style="stop-color:#ffffff;stop-opacity:1.0000000;"
         offset="0.0000000"
         id="stop11522" />
      <stop
         style="stop-color:#dcdcdc;stop-opacity:1.0000000;"
         offset="1.0000000"
         id="stop11524" />
    </linearGradient>
    <linearGradient
       id="linearGradient5150"
       inkscape:collect="always">
      <stop
         id="stop5152"
         offset="0"
         style="stop-color:black;stop-opacity:1;" />
      <stop
         id="stop5154"
         offset="1"
         style="stop-color:black;stop-opacity:0;" />
    </linearGradient>
    <linearGradient
       id="linearGradient5162">
      <stop
         id="stop5164"
         offset="0"
         style="stop-color:#babdb6;stop-opacity:1;" />
      <stop
         id="stop5166"
         offset="1"
         style="stop-color:white;stop-opacity:1;" />
    </linearGradient>
    <linearGradient
       id="linearGradient5176"
       inkscape:collect="always">
      <stop
         id="stop5178"
         offset="0"
         style="stop-color:black;stop-opacity:1;" />
      <stop
         id="stop5180"
         offset="1"
         style="stop-color:black;stop-opacity:0;" />
    </linearGradient>
    <linearGradient
       id="linearGradient5188">
      <stop
         id="stop5190"
         offset="0"
         style="stop-color:white;stop-opacity:1;" />
      <stop
         id="stop5192"
         offset="1"
         style="stop-color:#aeaea3;stop-opacity:1;" />
    </linearGradient>
    <linearGradient
       id="linearGradient5196">
      <stop
         id="stop5198"
         offset="0"
         style="stop-color:#dfe2dc;stop-opacity:1;" />
      <stop
         id="stop5200"
         offset="1"
         style="stop-color:#86917a;stop-opacity:1;" />
    </linearGradient>
    <linearGradient
       id="linearGradient5166"
       inkscape:collect="always">
      <stop
         id="stop5168"
         offset="0"
         style="stop-color:white;stop-opacity:1;" />
      <stop
         id="stop5170"
         offset="1"
         style="stop-color:white;stop-opacity:0;" />
    </linearGradient>
    <linearGradient
       inkscape:collect="always"
       id="linearGradient2187">
      <stop
         style="stop-color:#ffffff;stop-opacity:1;"
         offset="0"
         id="stop2189" />
      <stop
         style="stop-color:#ffffff;stop-opacity:0;"
         offset="1"
         id="stop2191" />
    </linearGradient>
    <linearGradient
       id="linearGradient2308">
      <stop
         id="stop2310"
         offset="0"
         style="stop-color:#edd400;stop-opacity:1;" />
      <stop
         id="stop2312"
         offset="1"
         style="stop-color:#edd400;stop-opacity:0;" />
    </linearGradient>
    <linearGradient
       id="linearGradient2326"
       inkscape:collect="always">
      <stop
         id="stop2328"
         offset="0"
         style="stop-color:#ffffff;stop-opacity:1;" />
      <stop
         id="stop2330"
         offset="1"
         style="stop-color:#ffffff;stop-opacity:0;" />
    </linearGradient>
    <linearGradient
       inkscape:collect="always"
       xlink:href="#linearGradient5338"
       id="linearGradient5359"
       gradientUnits="userSpaceOnUse"
       x1="21.470016"
       y1="21.705143"
       x2="22.181849"
       y2="12.394351" />
    <linearGradient
       inkscape:collect="always"
       xlink:href="#linearGradient5346"
       id="linearGradient5361"
       gradientUnits="userSpaceOnUse"
       x1="21.470016"
       y1="21.705143"
       x2="22.181849"
       y2="12.394351" />
    <linearGradient
       inkscape:collect="always"
       xlink:href="#linearGradient2187"
       id="linearGradient5363"
       gradientUnits="userSpaceOnUse"
       gradientTransform="matrix(0,0.8776898,1.5426035,0,-4.7476986,6.1285)"
       x1="17.060806"
       y1="11.39502"
       x2="12.624337"
       y2="12.583769" />
    <radialGradient
       inkscape:collect="always"
       xlink:href="#linearGradient2326"
       id="radialGradient5365"
       gradientUnits="userSpaceOnUse"
       gradientTransform="matrix(-3.2855199,0,0,-1.7230536,89.102242,59.997097)"
       cx="15.09403"
       cy="13.282721"
       fx="15.09403"
       fy="13.282721"
       r="10.16466" />
    <linearGradient
       inkscape:collect="always"
       xlink:href="#linearGradient9250"
       id="linearGradient9262"
       gradientUnits="userSpaceOnUse"
       gradientTransform="translate(-7.2478445,0.5303301)"
       x1="49.06879"
       y1="26.809322"
       x2="76.867531"
       y2="26.809322" />
    <linearGradient
       inkscape:collect="always"
       xlink:href="#linearGradient2187"
       id="linearGradient12249"
       gradientUnits="userSpaceOnUse"
       gradientTransform="matrix(0,-0.8776898,1.5426035,0,-4.5709219,61.053481)"
       x1="17.060806"
       y1="11.39502"
       x2="12.624337"
       y2="12.583769" />
    <linearGradient
       inkscape:collect="always"
       xlink:href="#linearGradient5338"
       id="linearGradient12252"
       gradientUnits="userSpaceOnUse"
       x1="21.470016"
       y1="21.705143"
       x2="22.181849"
       y2="12.394351"
       gradientTransform="translate(0.1767767,-3.1819806)" />
    <linearGradient
       inkscape:collect="always"
       xlink:href="#linearGradient5346"
       id="linearGradient12254"
       gradientUnits="userSpaceOnUse"
       x1="21.470016"
       y1="21.705143"
       x2="22.181849"
       y2="12.394351"
       gradientTransform="translate(0.1767767,-3.1819806)" />
    <linearGradient
       inkscape:collect="always"
       xlink:href="#linearGradient5338"
       id="linearGradient12271"
       gradientUnits="userSpaceOnUse"
       gradientTransform="matrix(1,0,0,-1,0.1767767,67.181981)"
       x1="21.470016"
       y1="21.705143"
       x2="22.181849"
       y2="12.394351" />
    <linearGradient
       inkscape:collect="always"
       xlink:href="#linearGradient5346"
       id="linearGradient12273"
       gradientUnits="userSpaceOnUse"
       gradientTransform="matrix(1,0,0,-1,0.1767767,67.181981)"
       x1="21.470016"
       y1="21.705143"
       x2="22.181849"
       y2="12.394351" />
    <radialGradient
       inkscape:collect="always"
       xlink:href="#linearGradient5150"
       id="radialGradient3576"
       gradientUnits="userSpaceOnUse"
       gradientTransform="matrix(1,0,0,0.325103,0,27.44386)"
       cx="24.837126"
       cy="40.663769"
       fx="24.837126"
       fy="40.663769"
       r="21.478369" />
    <radialGradient
       inkscape:collect="always"
       xlink:href="#linearGradient5188"
       id="radialGradient3578"
       gradientUnits="userSpaceOnUse"
       gradientTransform="matrix(2.135667,0,0,2.110607,-26.90176,-15.66914)"
       cx="23.688078"
       cy="14.210698"
       fx="23.688078"
       fy="14.210698"
       r="22.597088" />
    <radialGradient
       inkscape:collect="always"
       xlink:href="#linearGradient5196"
       id="radialGradient3580"
       gradientUnits="userSpaceOnUse"
       gradientTransform="matrix(1.790269,0,0,1.769263,-15.81394,-11.94997)"
       cx="20.089987"
       cy="10.853651"
       fx="20.089987"
       fy="10.853651"
       r="22.597088" />
    <linearGradient
       inkscape:collect="always"
       xlink:href="#linearGradient5162"
       id="linearGradient3582"
       gradientUnits="userSpaceOnUse"
       x1="22.008699"
       y1="36.509514"
       x2="23.585091"
       y2="14.412428" />
    <linearGradient
       inkscape:collect="always"
       xlink:href="#linearGradient5162"
       id="linearGradient3584"
       gradientUnits="userSpaceOnUse"
       x1="24.365993"
       y1="20.246058"
       x2="32.600704"
       y2="28.554564" />
    <linearGradient
       inkscape:collect="always"
       xlink:href="#linearGradient5176"
       id="linearGradient3586"
       gradientUnits="userSpaceOnUse"
       x1="25.632622"
       y1="10.611729"
       x2="38.714096"
       y2="18.389904" />
    <linearGradient
       inkscape:collect="always"
       xlink:href="#linearGradient5166"
       id="linearGradient3588"
       gradientUnits="userSpaceOnUse"
       x1="19.450956"
       y1="14.463861"
       x2="23.71875"
       y2="48.404987" />
    <linearGradient
       inkscape:collect="always"
       xlink:href="#linearGradient5176"
       id="linearGradient3594"
       gradientUnits="userSpaceOnUse"
       x1="25.632622"
       y1="10.611729"
       x2="38.714096"
       y2="18.389904"
       gradientTransform="matrix(1.2457977,0,0,1.2457977,-69.498247,56.065161)" />
    <linearGradient
       inkscape:collect="always"
       xlink:href="#linearGradient5162"
       id="linearGradient3598"
       gradientUnits="userSpaceOnUse"
       x1="24.365993"
       y1="20.246058"
       x2="32.600704"
       y2="28.554564"
       gradientTransform="matrix(1.2457977,0,0,1.2457977,-69.498247,56.065161)" />
    <linearGradient
       inkscape:collect="always"
       xlink:href="#linearGradient5162"
       id="linearGradient3601"
       gradientUnits="userSpaceOnUse"
       x1="22.008699"
       y1="36.509514"
       x2="23.585091"
       y2="14.412428"
       gradientTransform="matrix(1.2457977,0,0,1.2457977,-69.498247,56.065161)" />
    <radialGradient
       inkscape:collect="always"
       xlink:href="#linearGradient5188"
       id="radialGradient3604"
       gradientUnits="userSpaceOnUse"
       gradientTransform="matrix(2.660609,0,0,-2.6293893,-103.0124,91.455418)"
       cx="23.688078"
       cy="14.210698"
       fx="23.688078"
       fy="14.210698"
       r="22.597088" />
    <radialGradient
       inkscape:collect="always"
       xlink:href="#linearGradient5196"
       id="radialGradient3606"
       gradientUnits="userSpaceOnUse"
       gradientTransform="matrix(2.230313,0,0,-2.2041438,-89.199217,86.822084)"
       cx="20.089987"
       cy="10.853651"
       fx="20.089987"
       fy="10.853651"
       r="22.597088" />
    <linearGradient
       inkscape:collect="always"
       xlink:href="#linearGradient6221"
       id="linearGradient6227"
       x1="16.803905"
       y1="86.621613"
       x2="70.25"
       y2="56.15625"
       gradientUnits="userSpaceOnUse" />
    <linearGradient
       inkscape:collect="always"
       xlink:href="#linearGradient6229"
       id="linearGradient6235"
       x1="76.509773"
       y1="46.077522"
       x2="65.206535"
       y2="57.744781"
       gradientUnits="userSpaceOnUse" />
    <linearGradient
       inkscape:collect="always"
       xlink:href="#linearGradient9250"
       id="linearGradient7213"
       gradientUnits="userSpaceOnUse"
       gradientTransform="translate(-7.2478445,0.5303301)"
       x1="49.06879"
       y1="26.809322"
       x2="76.867531"
       y2="26.809322" />
    <linearGradient
       inkscape:collect="always"
       xlink:href="#linearGradient9250"
       id="linearGradient7217"
       gradientUnits="userSpaceOnUse"
       gradientTransform="matrix(1.8648999,0,0,1.8648999,41.985954,10.314764)"
       x1="49.06879"
       y1="26.809322"
       x2="76.867531"
       y2="26.809322" />
    <linearGradient
       inkscape:collect="always"
       xlink:href="#linearGradient9250"
       id="linearGradient8203"
       gradientUnits="userSpaceOnUse"
       gradientTransform="matrix(1.8648999,0,0,1.8648999,41.985954,10.314764)"
       x1="49.06879"
       y1="26.809322"
       x2="76.867531"
       y2="26.809322" />
    <linearGradient
       inkscape:collect="always"
       xlink:href="#linearGradient9250"
       id="linearGradient8205"
       gradientUnits="userSpaceOnUse"
       gradientTransform="matrix(1.8648999,0,0,1.8648999,41.985954,10.314764)"
       x1="49.06879"
       y1="26.809322"
       x2="76.867531"
       y2="26.809322" />
    <linearGradient
       inkscape:collect="always"
       xlink:href="#linearGradient4254"
       id="linearGradient9185"
       gradientUnits="userSpaceOnUse"
       x1="4.843277"
       y1="70.454651"
       x2="83.000008"
       y2="52.069874" />
    <filter
       inkscape:collect="always"
       x="-0.16067411"
       width="1.3213482"
       y="-0.65437721"
       height="2.3087544"
       id="filter13314">
      <feGaussianBlur
         inkscape:collect="always"
         stdDeviation="2.2975047"
         id="feGaussianBlur13316" />
    </filter>
    <filter
       inkscape:collect="always"
       x="-0.15995353"
       width="1.3199071"
       y="-0.1618397"
       height="1.3236794"
       id="filter14369">
      <feGaussianBlur
         inkscape:collect="always"
         stdDeviation="4.5033555"
         id="feGaussianBlur14371" />
    </filter>
    <filter
       inkscape:collect="always"
       x="-0.16157268"
       width="1.3231454"
       y="-0.57764422"
       height="2.1552884"
       id="filter15472">
      <feGaussianBlur
         inkscape:collect="always"
         stdDeviation="2.4886577"
         id="feGaussianBlur15474" />
    </filter>
  </defs>
  <sodipodi:namedview
     id="base"
     pagecolor="#ffffff"
     bordercolor="#666666"
     borderopacity="1.0"
     inkscape:pageopacity="0.0"
     inkscape:pageshadow="2"
     inkscape:zoom="1"
     inkscape:cx="60.322154"
     inkscape:cy="64"
     inkscape:document-units="px"
     inkscape:current-layer="layer1"
     width="128px"
     height="128px"
     inkscape:window-width="1280"
     inkscape:window-height="955"
     inkscape:window-x="0"
     inkscape:window-y="24" />
  <metadata
     id="metadata7">
    <rdf:RDF>
      <cc:Work
         rdf:about="">
        <dc:format>image/svg+xml</dc:format>
        <dc:type
           rdf:resource="http://purl.org/dc/dcmitype/StillImage" />
      </cc:Work>
    </rdf:RDF>
  </metadata>
  <g
     inkscape:label="Ebene 1"
     inkscape:groupmode="layer"
     id="layer1">
    <path
       style="color:#000000;fill:#2e3436;fill-opacity:1;fill-rule:evenodd;stroke:#2e3436;stroke-width:1.24579775;stroke-linecap:butt;stroke-linejoin:miter;marker:none;marker-start:none;marker-mid:none;marker-end:none;stroke-miterlimit:4;stroke-dasharray:none;stroke-dashoffset:0;stroke-opacity:1;visibility:visible;display:inline;overflow:visible;filter:url(#filter14369);opacity:0.71287129"
       d="M 52.90625,21.84375 L 37.9375,26.25 L 34.1875,35.0625 L 32.875,32.21875 L 29.125,32.4375 L 29.125,35.9375 L 24.71875,30.875 L 18.78125,37.28125 L 18.78125,46.3125 L 29.125,55.34375 L 22.53125,59.0625 L 22.75,62.8125 L 26.46875,66.125 L 24.28125,69.65625 L 28.90625,71.625 L 32.21875,68.96875 L 46.96875,70.09375 L 51.59375,76.25 L 55.78125,69.4375 L 61.0625,72.28125 L 68.09375,71.40625 L 66.34375,67.65625 L 71.1875,62.8125 L 64.375,55.09375 L 70.96875,56 L 73.84375,53.34375 L 70.09375,54 L 66.125,47.1875 L 60.40625,45.84375 L 65.03125,44.3125 L 65.25,40.34375 L 56.21875,32.4375 L 52.90625,21.84375 z "
       id="path13322" />
    <path
       sodipodi:nodetypes="ccccc"
       id="path11152"
       d="M 92.896732,74.62484 L 114.43007,74.62484 L 94.430066,95.205233 L 72.896732,95.205233 L 92.896732,74.62484 z "
       style="fill:#b4b5b2;fill-opacity:0.73880597;stroke:none;stroke-width:1;stroke-linejoin:round;stroke-miterlimit:4;stroke-dashoffset:0;stroke-opacity:0.8756219" />
    <path
       style="fill:#b4b5b2;fill-opacity:0.73880597;stroke:none;stroke-width:1;stroke-linejoin:round;stroke-miterlimit:4;stroke-dashoffset:0;stroke-opacity:0.8756219"
       d="M 78.896732,74.62484 L 90.430066,74.62484 L 70.430066,95.205233 L 58.896732,95.205233 L 78.896732,74.62484 z "
       id="rect10160"
       sodipodi:nodetypes="ccccc" />
    <path
       transform="matrix(1.8208683,0,0,2.6130093,-1.903539,-8.5479995)"
       d="M 69.296466 35.362175 A 13.700194 3.0935922 0 1 1  41.896077,35.362175 A 13.700194 3.0935922 0 1 1  69.296466 35.362175 z"
       sodipodi:ry="3.0935922"
       sodipodi:rx="13.700194"
       sodipodi:cy="35.362175"
       sodipodi:cx="55.596272"
       id="path11154"
       style="opacity:1;fill:#000000;fill-opacity:0.63681593;stroke:#000000;stroke-width:1;stroke-linejoin:round;stroke-miterlimit:4;stroke-dasharray:none;stroke-dashoffset:0;stroke-opacity:1;filter:url(#filter13314)"
       sodipodi:type="arc" />
    <path
       sodipodi:nodetypes="ccccc"
       id="path11132"
       d="M 68.896732,74.62484 L 76.430066,74.62484 L 56.430066,95.205233 L 48.896732,95.205233 L 68.896732,74.62484 z "
       style="fill:#b4b5b2;fill-opacity:0.73880597;stroke:none;stroke-width:1;stroke-linejoin:round;stroke-miterlimit:4;stroke-dashoffset:0;stroke-opacity:0.8756219" />
    <path
       style="fill:#b4b5b2;fill-opacity:0.73880597;stroke:none;stroke-width:1;stroke-linejoin:round;stroke-miterlimit:4;stroke-dashoffset:0;stroke-opacity:0.8756219"
       d="M 58.896732,74.62484 L 64.430066,74.62484 L 44.430066,95.205233 L 38.896732,95.205233 L 58.896732,74.62484 z "
       id="path11134"
       sodipodi:nodetypes="ccccc" />
    <path
       sodipodi:nodetypes="ccccc"
       id="path11136"
       d="M 48.896732,74.62484 L 52.430066,74.62484 L 32.430066,95.205233 L 28.896732,95.205233 L 48.896732,74.62484 z "
       style="fill:#b4b5b2;fill-opacity:0.73880597;stroke:none;stroke-width:1;stroke-linejoin:round;stroke-miterlimit:4;stroke-dashoffset:0;stroke-opacity:0.8756219" />
    <path
       style="fill:#b4b5b2;fill-opacity:0.73880597;stroke:none;stroke-width:1;stroke-linejoin:round;stroke-miterlimit:4;stroke-dashoffset:0;stroke-opacity:0.8756219"
       d="M 39.896732,74.62484 L 41.430066,74.62484 L 21.430066,95.205233 L 19.896732,95.205233 L 39.896732,74.62484 z "
       id="path11138"
       sodipodi:nodetypes="ccccc" />
    <path
       sodipodi:type="arc"
       style="opacity:0.7128713;fill:#2e3436;fill-opacity:1;stroke:#2e3436;stroke-width:1;stroke-linejoin:round;stroke-miterlimit:4;stroke-dasharray:none;stroke-dashoffset:0;stroke-opacity:1;filter:url(#filter15472)"
       id="path14373"
       sodipodi:cx="30"
       sodipodi:cy="83.0625"
       sodipodi:rx="15"
       sodipodi:ry="3.6875"
       d="M 45 83.0625 A 15 3.6875 0 1 1  15,83.0625 A 15 3.6875 0 1 1  45 83.0625 z"
       transform="matrix(1.0063162,0,0,0.6528115,0.3105151,30.088344)" />
    <path
       sodipodi:type="arc"
       style="opacity:1;fill:#3465a4;fill-opacity:0.63681593;stroke:#204a87;stroke-width:1;stroke-linejoin:round;stroke-miterlimit:4;stroke-dasharray:none;stroke-dashoffset:0;stroke-opacity:0.67661689"
       id="path10249"
       sodipodi:cx="55.596272"
       sodipodi:cy="35.362175"
       sodipodi:rx="13.700194"
       sodipodi:ry="3.0935922"
       d="M 69.296466 35.362175 A 13.700194 3.0935922 0 1 1  41.896077,35.362175 A 13.700194 3.0935922 0 1 1  69.296466 35.362175 z"
       transform="matrix(1.8208683,0,0,2.6130093,-1.903539,-8.5479995)" />
    <g
       inkscape:label="Layer 1"
       id="g2286"
       transform="matrix(1.2457977,0,0,1.2457977,15.251753,19.315161)">
      <path
         transform="matrix(1.106996,0,0,1.106996,-3.364576,-5.411516)"
         d="M 46.315495 40.663769 A 21.478369 6.9826794 0 1 1  3.358757,40.663769 A 21.478369 6.9826794 0 1 1  46.315495 40.663769 z"
         sodipodi:ry="6.9826794"
         sodipodi:rx="21.478369"
         sodipodi:cy="40.663769"
         sodipodi:cx="24.837126"
         id="path4275"
         style="opacity:0.3258427;color:#000000;fill:url(#radialGradient5156);fill-opacity:1;fill-rule:evenodd;stroke:none;stroke-width:1;stroke-linecap:butt;stroke-linejoin:miter;marker:none;marker-start:none;marker-mid:none;marker-end:none;stroke-miterlimit:4;stroke-dasharray:none;stroke-dashoffset:0;stroke-opacity:1;visibility:visible;display:inline;overflow:visible"
         sodipodi:type="arc" />
      <path
         id="path4273"
         d="M 9.0156115,37.570175 L 7.2478445,40.398602 L 10.960155,41.989592 L 13.611806,39.868272 L 25.455844,40.752155 L 29.168155,45.701903 L 32.526912,40.221825 L 36.769553,42.519922 L 42.426407,41.812816 L 41.012193,38.807612 L 44.901281,34.918524 L 39.421203,28.73134 L 44.724504,29.438447 L 47.022601,27.317127 L 44.017397,27.847457 L 40.835417,22.367379 L 36.239223,21.306719 L 39.951533,20.069282 L 40.12831,16.887302 L 32.880465,10.523341 L 30.228815,2.0380592 L 18.208,5.5735931 L 15.202796,12.644661 L 14.142136,10.346564 L 11.136932,10.523341 L 11.136932,13.351768 L 7.6013979,9.2859037 L 2.8284271,14.412428 L 2.8284271,21.660272 L 11.136932,28.908117 L 5.833631,31.913321 L 6.0104076,34.918524 L 9.0156115,37.570175 z "
         style="opacity:1;color:#000000;fill:url(#radialGradient5361);fill-opacity:1;fill-rule:evenodd;stroke:url(#radialGradient5363);stroke-width:1;stroke-linecap:butt;stroke-linejoin:miter;marker:none;marker-start:none;marker-mid:none;marker-end:none;stroke-miterlimit:4;stroke-dasharray:none;stroke-dashoffset:0;stroke-opacity:1;visibility:visible;display:inline;overflow:visible" />
      <path
         id="path5158"
         d="M 19.445437,22.720933 L 18.561553,29.26167 L 20.682873,32.620427 L 16.086679,34.034641 L 13.435029,39.337942 L 25.455844,40.221825 L 28.284271,44.287689 L 30.582368,38.100505 L 26.162951,35.272078 L 19.445437,37.216622 L 22.097087,33.681088 L 20.682873,27.493903 L 19.445437,22.720933 z "
         style="opacity:0.76966289;color:#000000;fill:url(#linearGradient5170);fill-opacity:1;fill-rule:evenodd;stroke:none;stroke-width:1;stroke-linecap:butt;stroke-linejoin:miter;marker:none;marker-start:none;marker-mid:none;marker-end:none;stroke-miterlimit:4;stroke-dasharray:none;stroke-dashoffset:0;stroke-opacity:1;visibility:visible;display:inline;overflow:visible" />
      <path
         id="path5160"
         d="M 20.506097,23.781593 L 24.925514,30.675884 L 32.173359,25.726136 L 36.592776,28.20101 L 40.12831,25.195806 L 43.31029,28.024233 L 40.305087,23.074486 L 33.410795,21.483496 L 24.748737,17.240855 C 24.748737,17.240855 12.374369,20.953166 13.081475,20.953166 C 13.788582,20.953166 23.334524,21.129942 23.334524,21.129942 L 24.925514,18.831845 L 29.168155,20.776389 L 20.506097,23.781593 z "
         style="opacity:0.61797755;color:#000000;fill:url(#linearGradient5168);fill-opacity:1;fill-rule:evenodd;stroke:none;stroke-width:1;stroke-linecap:butt;stroke-linejoin:miter;marker:none;marker-start:none;marker-mid:none;marker-end:none;stroke-miterlimit:4;stroke-dasharray:none;stroke-dashoffset:0;stroke-opacity:1;visibility:visible;display:inline;overflow:visible" />
      <path
         id="path5172"
         d="M 29.521708,3.4522727 L 19.091883,6.9878066 L 17.67767,10.876894 L 23.688077,15.119535 L 29.344931,9.6394571 L 29.521708,3.4522727 z "
         style="opacity:1;color:#000000;fill:#ffffff;fill-opacity:1;fill-rule:evenodd;stroke:none;stroke-width:1;stroke-linecap:butt;stroke-linejoin:miter;marker:none;marker-start:none;marker-mid:none;marker-end:none;stroke-miterlimit:4;stroke-dasharray:none;stroke-dashoffset:0;stroke-opacity:1;visibility:visible;display:inline;overflow:visible" />
      <path
         id="path5174"
         d="M 29.698485,3.8058261 L 31.996582,11.230447 L 36.239223,14.942758 L 27.577165,12.998214 C 27.577165,12.998214 25.102291,15.826641 26.162951,15.826641 C 27.223611,15.826641 38.714096,17.240855 38.714096,17.240855 L 38.53732,19.538952 L 22.273864,16.533748 L 29.344931,9.9930105 L 29.698485,3.8058261 z "
         style="opacity:0.13483145;color:#000000;fill:url(#linearGradient5182);fill-opacity:1;fill-rule:evenodd;stroke:none;stroke-width:1;stroke-linecap:butt;stroke-linejoin:miter;marker:none;marker-start:none;marker-mid:none;marker-end:none;stroke-miterlimit:4;stroke-dasharray:none;stroke-dashoffset:0;stroke-opacity:1;visibility:visible;display:inline;overflow:visible" />
      <path
         id="path5184"
         d="M 7.4246212,14.235651 L 6.5407377,23.074486 L 8.4852814,17.064078 L 13.611806,18.655069 L 14.849242,16.003418 L 21.036427,16.887302 L 22.45064,15.649865 L 13.435029,15.296311 L 12.551145,17.771185 L 8.6620581,15.826641 L 7.4246212,14.235651 z "
         style="opacity:1;color:#000000;fill:#ffffff;fill-opacity:1;fill-rule:evenodd;stroke:none;stroke-width:1;stroke-linecap:butt;stroke-linejoin:miter;marker:none;marker-start:none;marker-mid:none;marker-end:none;stroke-miterlimit:4;stroke-dasharray:none;stroke-dashoffset:0;stroke-opacity:1;visibility:visible;display:inline;overflow:visible" />
      <path
         id="path5186"
         d="M 22.45064,27.317127 L 25.455844,30.852661 L 32.350135,26.256466 L 36.592776,28.554563 L 43.487067,35.095301 L 35.885669,29.26167 L 32.173359,28.20101 L 24.925514,33.150758 L 22.45064,27.317127 z "
         style="opacity:1;color:#000000;fill:#ffffff;fill-opacity:1;fill-rule:evenodd;stroke:none;stroke-width:1;stroke-linecap:butt;stroke-linejoin:miter;marker:none;marker-start:none;marker-mid:none;marker-end:none;stroke-miterlimit:4;stroke-dasharray:none;stroke-dashoffset:0;stroke-opacity:1;visibility:visible;display:inline;overflow:visible" />
      <path
         d="M 29.65625,3.09375 L 18.84375,6.25 L 15.96875,13 C 15.834262,13.30255 15.53422,13.497528 15.203125,13.497528 C 14.87203,13.497528 14.571988,13.30255 14.4375,13 L 13.65625,11.21875 L 11.96875,11.3125 L 11.96875,13.34375 C 11.973462,13.69495 11.758625,14.011813 11.430625,14.13743 C 11.102625,14.263047 10.731089,14.170753 10.5,13.90625 L 7.5625,10.53125 L 3.6875,14.71875 L 3.6875,21.28125 L 11.6875,28.28125 C 11.883657,28.462891 11.981357,28.727236 11.950479,28.992788 C 11.919601,29.25834 11.763852,29.493214 11.53125,29.625 L 6.71875,32.375 L 6.8125,34.5 L 9.5625,36.9375 C 9.8645501,37.207345 9.9303261,37.654622 9.71875,38 L 8.46875,40 L 10.84375,41.03125 L 13.09375,39.21875 C 13.260233,39.0823 13.472846,39.015159 13.6875,39.03125 L 25.53125,39.90625 C 25.769158,39.930835 25.985219,40.055923 26.125,40.25 L 29.09375,44.21875 L 31.8125,39.78125 C 32.041236,39.389926 32.539705,39.251463 32.9375,39.46875 L 36.96875,41.65625 L 41.1875,41.125 L 40.25,39.1875 C 40.087762,38.864671 40.150741,38.474201 40.40625,38.21875 L 43.75,34.875 L 38.78125,29.28125 C 38.529387,29.019826 38.474521,28.625949 38.645349,28.305645 C 38.816178,27.985341 39.17384,27.811478 39.53125,27.875 L 43.40625,28.40625 C 43.369413,28.35773 43.337977,28.305337 43.3125,28.25 L 40.3125,23.09375 L 36.0625,22.125 C 35.709163,22.034799 35.454745,21.726417 35.433331,21.362378 C 35.411917,20.998338 35.628425,20.662254 35.96875,20.53125 L 39.125,19.46875 L 39.25,17.21875 L 32.3125,11.15625 C 32.19648,11.05643 32.110019,10.926737 32.0625,10.78125 L 29.65625,3.09375 z "
         inkscape:href="#path4273"
         id="path5359"
         style="opacity:1;color:#000000;fill:none;fill-opacity:1;fill-rule:evenodd;stroke:url(#linearGradient5172);stroke-width:1;stroke-linecap:butt;stroke-linejoin:miter;marker:none;marker-start:none;marker-mid:none;marker-end:none;stroke-miterlimit:4;stroke-dasharray:none;stroke-dashoffset:0;stroke-opacity:1;visibility:visible;display:inline;overflow:visible"
         xlink:href="#path4273"
         inkscape:original="M 30.21875 2.03125 L 18.21875 5.5625 L 15.1875 12.65625 L 14.15625 10.34375 L 11.125 10.53125 L 11.125 13.34375 L 7.59375 9.28125 L 2.84375 14.40625 L 2.84375 21.65625 L 11.125 28.90625 L 5.84375 31.90625 L 6 34.90625 L 9 37.5625 L 7.25 40.40625 L 10.96875 42 L 13.625 39.875 L 25.46875 40.75 L 29.15625 45.6875 L 32.53125 40.21875 L 36.78125 42.53125 L 42.4375 41.8125 L 41 38.8125 L 44.90625 34.90625 L 39.40625 28.71875 L 44.71875 29.4375 L 47.03125 27.3125 L 44.03125 27.84375 L 40.84375 22.375 L 36.25 21.3125 L 39.9375 20.0625 L 40.125 16.875 L 32.875 10.53125 L 30.21875 2.03125 z "
         inkscape:radius="-0.83777463"
         sodipodi:type="inkscape:offset" />
    </g>
    <text
       xml:space="preserve"
       style="font-size:10.78141689px;font-style:normal;font-weight:normal;fill:#000000;fill-opacity:1;stroke:none;stroke-width:1px;stroke-linecap:butt;stroke-linejoin:miter;stroke-opacity:1;font-family:Bitstream Vera Sans"
       x="4.125886"
       y="125.4864"
       id="text9268"><tspan
         sodipodi:role="line"
         id="tspan9270"
         x="4.125886"
         y="125.4864">open content network</tspan></text>
    <path
       id="path4266"
       d="M 42,39.8125 C 48.99708,41.429856 57.14124,42.927462 63.03125,45 C 63.62977,45.210324 64.20103,45.433456 64.75,45.65625 C 65.75185,46.062842 66.66605,46.48159 67.46875,46.9375 C 67.55973,46.989172 67.6619,47.041372 67.75,47.09375 C 68.06812,47.285515 68.37826,47.485879 68.65625,47.6875 C 68.74963,47.754407 68.84881,47.838199 68.9375,47.90625 C 69.18206,48.097544 69.41876,48.299407 69.625,48.5 C 69.71111,48.582653 69.79577,48.665681 69.875,48.75 C 69.92891,48.808124 69.98064,48.878581 70.03125,48.9375 C 70.15523,49.081833 70.27142,49.225771 70.375,49.375 C 70.88765,50.097982 71.155,50.865377 71.125,51.71875 C 71.10576,52.265971 70.51628,52.719807 69.59375,53.125 L 70.09375,54 L 73.84375,53.34375 L 70.96875,56 L 64.375,55.09375 L 70.1875,61.65625 C 76.88989,60.390469 82.48949,57.850069 82.5,52.875 C 82.50266,51.616 81.74796,50.461648 80.4375,49.375 C 80.23398,49.206238 80.01126,49.039561 79.78125,48.875 C 79.68828,48.808232 79.59716,48.722332 79.5,48.65625 C 79.4228,48.604087 79.32977,48.55173 79.25,48.5 C 79.00654,48.341378 78.73537,48.185837 78.46875,48.03125 C 77.58847,47.523752 76.56904,47.02576 75.46875,46.5625 C 74.99075,46.361244 74.48193,46.161603 73.96875,45.96875 C 73.50871,45.795539 73.04792,45.603938 72.5625,45.4375 C 72.3161,45.353016 72.06491,45.270233 71.8125,45.1875 C 71.55227,45.102542 71.26618,45.020597 71,44.9375 C 70.21095,44.690691 69.39714,44.449117 68.5625,44.21875 C 68.54347,44.213511 68.51905,44.22398 68.5,44.21875 C 67.96955,44.072756 67.42036,43.920578 66.875,43.78125 C 66.54195,43.696339 66.21277,43.613676 65.875,43.53125 C 65.6181,43.468452 65.3531,43.405102 65.09375,43.34375 C 57.24804,41.487791 48.3486,40.301531 42,39.8125 z M 28.875,55.46875 C 17.680779,55.967454 5.254972,58.630976 5.34375,69.09375 C 5.474564,84.65758 32.94006,86.621928 43.3125,86.5 L 57.5625,86.34375 L 53.03125,90.84375 L 71.4375,84 L 65.9375,77.96875 L 61.90625,82.15625 L 47.15625,82.15625 C 35.0396,82.156247 21.592183,79.149994 21.59375,72.28125 C 21.594194,70.370988 23.18896,68.767004 25.625,67.46875 L 26.46875,66.125 L 22.75,62.8125 L 22.53125,59.0625 L 28.875,55.46875 z "
       style="fill:url(#linearGradient9185);fill-opacity:1;fill-rule:evenodd;stroke:#204a87;stroke-width:1px;stroke-linecap:butt;stroke-linejoin:miter;stroke-opacity:1;opacity:1"
       sodipodi:nodetypes="csssssssssssccccccssssssssssssssssccccccccccsccccc" />
    <path
       style="fill:none;fill-opacity:1.0;fill-rule:evenodd;stroke:url(#linearGradient6235);stroke-width:1px;stroke-linecap:butt;stroke-linejoin:miter;stroke-opacity:0.87562191"
       d="M 58.625,42.8125 C 65.360401,44.486452 72.253621,46.814369 72.125,51.71875 L 71.09375,53 L 76.71875,52.09375 L 71.21875,56.875 L 66.875,56.21875 L 70.5625,60.65625 C 77.764892,58.890469 81.43676,56.797276 81.5,52.875 C 81.571303,48.452626 69.687289,45.071179 58.625,42.8125 z "
       id="path4268"
       sodipodi:nodetypes="cccccccsc" />
    <path
       style="fill:none;fill-opacity:1.0;fill-rule:evenodd;stroke:url(#linearGradient6227);stroke-width:1px;stroke-linecap:butt;stroke-linejoin:miter;stroke-opacity:0.87562191"
       d="M 25.1875 56.65625 C 15.724651 57.539703 6.8320962 60.26616 6.34375 69.09375 C 6.3783771 83.503332 32.940058 85.621928 43.3125 85.5 L 59.65625 85.4375 L 56.40625 88.65625 L 69.75 83.625 L 65.9375 79.3125 L 62.46875 83.03125 L 47.15625 83.15625 C 35.039601 83.156247 20.592183 80.01568 20.59375 72.28125 C 20.594132 70.370988 21.799336 68.007254 24.8125 67.09375 L 25.375 66.125 L 21.75 62.8125 L 21.53125 59.0625 L 25.1875 56.65625 z "
       id="path5239" />
    <text
       xml:space="preserve"
       style="font-size:39.00621414px;font-style:normal;font-weight:normal;fill:#000000;fill-opacity:1;stroke:none;stroke-width:1px;stroke-linecap:butt;stroke-linejoin:miter;stroke-opacity:1;font-family:Bitstream Vera Sans"
       x="1.768857"
       y="117.35682"
       id="text9264"><tspan
         sodipodi:role="line"
         id="tspan9266"
         x="1.768857"
         y="117.35682">oCone</tspan></text>
    <g
       id="g8195"
       transform="matrix(0.6039297,0,0,0.6039297,2.873139,32.53668)">
      <path
         style="opacity:1;fill:url(#linearGradient8203);fill-opacity:1;stroke:#204a87;stroke-width:1.86489987;stroke-linejoin:round;stroke-miterlimit:4;stroke-dashoffset:0;stroke-opacity:1"
         d="M 184.40376,82.690264 C 184.40376,87.330711 173.25297,91.096871 159.51361,91.096871 C 145.77425,91.096871 132.65588,86.892926 134.62346,82.690264 L 159.51361,29.526061 L 184.40376,82.690264 z "
         id="path8197"
         sodipodi:nodetypes="csscc" />
      <path
         sodipodi:nodetypes="csscc"
         id="path8199"
         d="M 182.12328,82.100564 C 182.12328,86.322796 171.97745,89.749533 159.47634,89.749533 C 146.97523,89.749533 135.03914,85.924465 136.8294,82.100564 L 159.47634,33.727746 L 182.12328,82.100564 z "
         style="opacity:1;fill:none;fill-opacity:0.63681593;stroke:#eeeeec;stroke-width:1.69682717;stroke-linejoin:round;stroke-miterlimit:4;stroke-dashoffset:0;stroke-opacity:0.67661689" />
      <path
         style="opacity:1;fill:#eeeeec;fill-opacity:0.4726368;stroke:none;stroke-width:1.69682717;stroke-linejoin:round;stroke-miterlimit:4;stroke-dashoffset:0;stroke-opacity:0.67661689"
         d="M 150.41209,89.092118 C 147.56309,88.673769 144.95505,88.076139 142.79361,87.359011 L 159.47634,33.727746 L 150.41209,89.092118 z "
         id="path8201"
         sodipodi:nodetypes="cccc" />
    </g>
    <g
       id="g8190"
       transform="translate(-60,0.8366015)"
       style="opacity:0.67326732">
      <path
         sodipodi:nodetypes="csscc"
         id="path6336"
         d="M 184.40376,82.690264 C 184.40376,87.330711 173.25297,91.096871 159.51361,91.096871 C 145.77425,91.096871 132.65588,86.892926 134.62346,82.690264 L 159.51361,29.526061 L 184.40376,82.690264 z "
         style="opacity:1;fill:url(#linearGradient8205);fill-opacity:1;stroke:#204a87;stroke-width:1.86489987;stroke-linejoin:round;stroke-miterlimit:4;stroke-dashoffset:0;stroke-opacity:1" />
      <path
         style="opacity:1;fill:none;fill-opacity:0.63681593;stroke:#eeeeec;stroke-width:1.69682717;stroke-linejoin:round;stroke-miterlimit:4;stroke-dashoffset:0;stroke-opacity:0.67661689"
         d="M 182.12328,82.100564 C 182.12328,86.322796 171.97745,89.749533 159.47634,89.749533 C 146.97523,89.749533 135.03914,85.924465 136.8294,82.100564 L 159.47634,33.727746 L 182.12328,82.100564 z "
         id="path7310"
         sodipodi:nodetypes="csscc" />
      <path
         sodipodi:nodetypes="cccc"
         id="path7219"
         d="M 150.41209,89.092118 C 147.56309,88.673769 144.95505,88.076139 142.79361,87.359011 L 159.47634,33.727746 L 150.41209,89.092118 z "
         style="opacity:1;fill:#eeeeec;fill-opacity:0.4726368;stroke:none;stroke-width:1.69682717;stroke-linejoin:round;stroke-miterlimit:4;stroke-dashoffset:0;stroke-opacity:0.67661689" />
    </g>
  </g>
</svg>
