<?xml version="1.0" encoding="UTF-8" standalone="no"?>
<!-- Created with Inkscape (http://www.inkscape.org/) -->
<svg
   xmlns:dc="http://purl.org/dc/elements/1.1/"
   xmlns:cc="http://web.resource.org/cc/"
   xmlns:rdf="http://www.w3.org/1999/02/22-rdf-syntax-ns#"
   xmlns:svg="http://www.w3.org/2000/svg"
   xmlns="http://www.w3.org/2000/svg"
   xmlns:xlink="http://www.w3.org/1999/xlink"
   xmlns:sodipodi="http://sodipodi.sourceforge.net/DTD/sodipodi-0.dtd"
   xmlns:inkscape="http://www.inkscape.org/namespaces/inkscape"
   width="1000"
   height="700"
   id="svg2"
   sodipodi:version="0.32"
   inkscape:version="0.45.1"
   version="1.0"
   sodipodi:docbase="/home/kore/devel/ocone/doc/media"
   sodipodi:docname="website.svg"
   inkscape:output_extension="org.inkscape.output.svg.inkscape">
  <defs
     id="defs4">
    <linearGradient
       id="linearGradient5081">
      <stop
         id="stop5083"
         offset="0"
         style="stop-color:#ffffff;stop-opacity:1;" />
      <stop
         style="stop-color:#ffffff;stop-opacity:1;"
         offset="0.80273974"
         id="stop5089" />
      <stop
         id="stop5085"
         offset="1"
         style="stop-color:#729fcf;stop-opacity:1;" />
    </linearGradient>
    <linearGradient
       id="linearGradient6068">
      <stop
         id="stop6070"
         offset="0"
         style="stop-color:#204a87;stop-opacity:1;" />
      <stop
         id="stop6072"
         offset="1"
         style="stop-color:#6696db;stop-opacity:1;" />
    </linearGradient>
    <radialGradient
       inkscape:collect="always"
       xlink:href="#linearGradient5081"
       id="radialGradient4240"
       gradientUnits="userSpaceOnUse"
       gradientTransform="matrix(1,0,0,0.3395061,0,40.420582)"
       cx="66.46804"
       cy="61.197514"
       fx="66.46804"
       fy="61.197514"
       r="14.318913" />
    <radialGradient
       inkscape:collect="always"
       xlink:href="#linearGradient5081"
       id="radialGradient4242"
       gradientUnits="userSpaceOnUse"
       gradientTransform="matrix(1,0,0,0.3395061,0,40.420582)"
       cx="66.46804"
       cy="61.197514"
       fx="66.46804"
       fy="61.197514"
       r="14.318913" />
    <radialGradient
       inkscape:collect="always"
       xlink:href="#linearGradient5081"
       id="radialGradient4244"
       gradientUnits="userSpaceOnUse"
       gradientTransform="matrix(1,0,0,0.3395061,0,40.420582)"
       cx="66.46804"
       cy="61.197514"
       fx="66.46804"
       fy="61.197514"
       r="14.318913" />
    <linearGradient
       inkscape:collect="always"
       xlink:href="#linearGradient6068"
       id="linearGradient4246"
       gradientUnits="userSpaceOnUse"
       gradientTransform="matrix(1.1666667,0,0,1.1818182,-6.2166468,-12.541034)"
       x1="80.786957"
       y1="61.06995"
       x2="56.088726"
       y2="52.095135" />
    <linearGradient
       inkscape:collect="always"
       xlink:href="#linearGradient6068"
       id="linearGradient4248"
       gradientUnits="userSpaceOnUse"
       gradientTransform="matrix(1.1666667,0,0,1.1818182,-6.2166468,-12.541034)"
       x1="80.786957"
       y1="61.06995"
       x2="56.088726"
       y2="52.095135" />
    <filter
       inkscape:collect="always"
       x="-0.0090891089"
       width="1.0181782"
       y="-0.45445545"
       height="1.9089109"
       id="filter10236">
      <feGaussianBlur
         inkscape:collect="always"
         stdDeviation="3.7871287"
         id="feGaussianBlur10238" />
    </filter>
    <linearGradient
       gradientUnits="userSpaceOnUse"
       y2="21.118431"
       x2="7"
       y1="18.25"
       x1="12.25"
       id="linearGradient6931"
       xlink:href="#linearGradient6925"
       inkscape:collect="always" />
    <linearGradient
       gradientUnits="userSpaceOnUse"
       y2="16.743431"
       x2="8.8953285"
       y1="15.868432"
       x1="14.751649"
       id="linearGradient6907"
       xlink:href="#linearGradient6901"
       inkscape:collect="always" />
    <linearGradient
       gradientUnits="userSpaceOnUse"
       y2="11.780679"
       x2="21.747974"
       y1="31.964777"
       x1="33.431175"
       id="linearGradient2553"
       xlink:href="#linearGradient2555"
       inkscape:collect="always" />
    <linearGradient
       gradientTransform="translate(0,5.125)"
       inkscape:collect="always"
       xlink:href="#linearGradient4274"
       id="linearGradient4272"
       x1="23.688078"
       y1="11.318835"
       x2="23.688078"
       y2="26.357183"
       gradientUnits="userSpaceOnUse" />
    <radialGradient
       inkscape:collect="always"
       xlink:href="#linearGradient4264"
       id="radialGradient4270"
       cx="23.201941"
       cy="27.096155"
       fx="23.201941"
       fy="27.096155"
       r="23.555494"
       gradientTransform="matrix(1.000000,0.000000,0.000000,0.651032,-2.885063e-16,9.455693)"
       gradientUnits="userSpaceOnUse" />
    <linearGradient
       gradientTransform="translate(0,5.125)"
       inkscape:collect="always"
       xlink:href="#linearGradient4254"
       id="linearGradient4260"
       x1="12.378357"
       y1="4.4331360"
       x2="44.096100"
       y2="47.620636"
       gradientUnits="userSpaceOnUse" />
    <radialGradient
       inkscape:collect="always"
       xlink:href="#linearGradient4244"
       id="radialGradient4250"
       cx="15.571491"
       cy="2.9585190"
       fx="15.571491"
       fy="2.9585190"
       r="20.935817"
       gradientTransform="matrix(1.286242,0.781698,-0.710782,1.169552,-2.354348,0.24814)"
       gradientUnits="userSpaceOnUse" />
    <linearGradient
       gradientTransform="translate(0,5.125)"
       inkscape:collect="always"
       xlink:href="#linearGradient4236"
       id="linearGradient4242"
       x1="12.277412"
       y1="37.205811"
       x2="12.221823"
       y2="33.758667"
       gradientUnits="userSpaceOnUse" />
    <linearGradient
       gradientTransform="translate(0,5.125)"
       inkscape:collect="always"
       xlink:href="#linearGradient4228"
       id="linearGradient4234"
       x1="7.6046205"
       y1="28.481176"
       x2="36.183067"
       y2="40.943935"
       gradientUnits="userSpaceOnUse" />
    <linearGradient
       inkscape:collect="always"
       xlink:href="#linearGradient4184"
       id="linearGradient4209"
       gradientUnits="userSpaceOnUse"
       x1="7.0625000"
       y1="35.281250"
       x2="24.687500"
       y2="35.281250"
       gradientTransform="translate(0.795493,3.79918)" />
    <linearGradient
       id="linearGradient4184">
      <stop
         style="stop-color:#838383;stop-opacity:1.0000000;"
         offset="0.0000000"
         id="stop4186" />
      <stop
         style="stop-color:#bbbbbb;stop-opacity:0.0000000;"
         offset="1.0000000"
         id="stop4188" />
    </linearGradient>
    <linearGradient
       id="linearGradient4228">
      <stop
         style="stop-color:#bbbbbb;stop-opacity:1.0000000;"
         offset="0.0000000"
         id="stop4230" />
      <stop
         style="stop-color:#9f9f9f;stop-opacity:1.0000000;"
         offset="1.0000000"
         id="stop4232" />
    </linearGradient>
    <linearGradient
       inkscape:collect="always"
       id="linearGradient4236">
      <stop
         style="stop-color:#eeeeee;stop-opacity:1;"
         offset="0"
         id="stop4238" />
      <stop
         style="stop-color:#eeeeee;stop-opacity:0;"
         offset="1"
         id="stop4240" />
    </linearGradient>
    <linearGradient
       id="linearGradient4244">
      <stop
         style="stop-color:#e4e4e4;stop-opacity:1.0000000;"
         offset="0.0000000"
         id="stop4246" />
      <stop
         style="stop-color:#d3d3d3;stop-opacity:1.0000000;"
         offset="1.0000000"
         id="stop4248" />
    </linearGradient>
    <linearGradient
       inkscape:collect="always"
       id="linearGradient4254">
      <stop
         style="stop-color:#ffffff;stop-opacity:1;"
         offset="0"
         id="stop4256" />
      <stop
         style="stop-color:#ffffff;stop-opacity:0;"
         offset="1"
         id="stop4258" />
    </linearGradient>
    <linearGradient
       inkscape:collect="always"
       id="linearGradient4264">
      <stop
         style="stop-color:#000000;stop-opacity:1;"
         offset="0"
         id="stop4266" />
      <stop
         style="stop-color:#000000;stop-opacity:0;"
         offset="1"
         id="stop4268" />
    </linearGradient>
    <linearGradient
       id="linearGradient4274">
      <stop
         id="stop4276"
         offset="0.0000000"
         style="stop-color:#ffffff;stop-opacity:0.25490198;" />
      <stop
         id="stop4278"
         offset="1.0000000"
         style="stop-color:#ffffff;stop-opacity:1.0000000;" />
    </linearGradient>
    <linearGradient
       id="linearGradient2555">
      <stop
         style="stop-color:#ffffff;stop-opacity:1;"
         offset="0"
         id="stop2557" />
      <stop
         id="stop2561"
         offset="0.50000000"
         style="stop-color:#e6e6e6;stop-opacity:1.0000000;" />
      <stop
         style="stop-color:#ffffff;stop-opacity:1.0000000;"
         offset="0.75000000"
         id="stop2563" />
      <stop
         id="stop2565"
         offset="0.84166664"
         style="stop-color:#e1e1e1;stop-opacity:1.0000000;" />
      <stop
         style="stop-color:#ffffff;stop-opacity:1.0000000;"
         offset="1.0000000"
         id="stop2559" />
    </linearGradient>
    <radialGradient
       gradientUnits="userSpaceOnUse"
       gradientTransform="matrix(1,0,0,0.536723,0,16.87306)"
       r="15.644737"
       fy="36.421127"
       fx="24.837126"
       cy="36.421127"
       cx="24.837126"
       id="radialGradient8668"
       xlink:href="#linearGradient8662"
       inkscape:collect="always" />
    <linearGradient
       id="linearGradient8662"
       inkscape:collect="always">
      <stop
         id="stop8664"
         offset="0"
         style="stop-color:#000000;stop-opacity:1;" />
      <stop
         id="stop8666"
         offset="1"
         style="stop-color:#000000;stop-opacity:0;" />
    </linearGradient>
    <linearGradient
       y2="12.583769"
       x2="12.624337"
       y1="27.394117"
       x1="33.059906"
       gradientTransform="matrix(0.914114,0,0,0.914114,-3.868698,-2.706902)"
       gradientUnits="userSpaceOnUse"
       id="linearGradient1764"
       xlink:href="#linearGradient2187"
       inkscape:collect="always" />
    <linearGradient
       inkscape:collect="always"
       id="linearGradient2187">
      <stop
         style="stop-color:#ffffff;stop-opacity:1;"
         offset="0"
         id="stop2189" />
      <stop
         style="stop-color:#ffffff;stop-opacity:0;"
         offset="1"
         id="stop2191" />
    </linearGradient>
    <radialGradient
       gradientUnits="userSpaceOnUse"
       gradientTransform="matrix(-1.314471,-1.006312e-2,-1.022964e-2,1.336221,46.22108,-4.909887)"
       r="19.0625"
       fy="6.4576745"
       fx="23.447077"
       cy="6.4576745"
       cx="23.447077"
       id="radialGradient4997"
       xlink:href="#linearGradient4991"
       inkscape:collect="always" />
    <linearGradient
       id="linearGradient4991"
       inkscape:collect="always">
      <stop
         id="stop4993"
         offset="0"
         style="stop-color:#ffffff;stop-opacity:1;" />
      <stop
         id="stop4995"
         offset="1"
         style="stop-color:#ffffff;stop-opacity:0;" />
    </linearGradient>
    <linearGradient
       id="linearGradient6901"
       inkscape:collect="always">
      <stop
         id="stop6903"
         offset="0"
         style="stop-color:#3465a4;stop-opacity:1;" />
      <stop
         id="stop6905"
         offset="1"
         style="stop-color:#3465a4;stop-opacity:0;" />
    </linearGradient>
    <linearGradient
       id="linearGradient6925"
       inkscape:collect="always">
      <stop
         id="stop6927"
         offset="0"
         style="stop-color:#204a87;stop-opacity:1;" />
      <stop
         id="stop6929"
         offset="1"
         style="stop-color:#204a87;stop-opacity:0;" />
    </linearGradient>
    <linearGradient
       y2="609.50507"
       x2="302.85715"
       y1="366.64789"
       x1="302.85715"
       gradientTransform="matrix(2.774389,0,0,1.969706,-1892.179,-872.8854)"
       gradientUnits="userSpaceOnUse"
       id="linearGradient5027"
       xlink:href="#linearGradient5048"
       inkscape:collect="always" />
    <linearGradient
       id="linearGradient5048">
      <stop
         id="stop5050"
         offset="0"
         style="stop-color:black;stop-opacity:0;" />
      <stop
         style="stop-color:black;stop-opacity:1;"
         offset="0.5"
         id="stop5056" />
      <stop
         id="stop5052"
         offset="1"
         style="stop-color:black;stop-opacity:0;" />
    </linearGradient>
    <radialGradient
       r="117.14286"
       fy="486.64789"
       fx="605.71429"
       cy="486.64789"
       cx="605.71429"
       gradientTransform="matrix(2.774389,0,0,1.969706,-1891.633,-872.8854)"
       gradientUnits="userSpaceOnUse"
       id="radialGradient5029"
       xlink:href="#linearGradient5060"
       inkscape:collect="always" />
    <linearGradient
       id="linearGradient5060"
       inkscape:collect="always">
      <stop
         id="stop5062"
         offset="0"
         style="stop-color:black;stop-opacity:1;" />
      <stop
         id="stop5064"
         offset="1"
         style="stop-color:black;stop-opacity:0;" />
    </linearGradient>
    <radialGradient
       r="117.14286"
       fy="486.64789"
       fx="605.71429"
       cy="486.64789"
       cx="605.71429"
       gradientTransform="matrix(-2.774389,0,0,1.969706,112.7623,-872.8854)"
       gradientUnits="userSpaceOnUse"
       id="radialGradient5031"
       xlink:href="#linearGradient5060"
       inkscape:collect="always" />
  </defs>
  <sodipodi:namedview
     id="base"
     pagecolor="#ffffff"
     bordercolor="#666666"
     borderopacity="1.0"
     inkscape:pageopacity="0.0"
     inkscape:pageshadow="2"
     inkscape:zoom="1"
     inkscape:cx="500"
     inkscape:cy="350"
     inkscape:document-units="px"
     inkscape:current-layer="layer1"
     width="1000px"
     height="700px"
     inkscape:window-width="1280"
     inkscape:window-height="944"
     inkscape:window-x="0"
     inkscape:window-y="24" />
  <metadata
     id="metadata7">
    <rdf:RDF>
      <cc:Work
         rdf:about="">
        <dc:format>image/svg+xml</dc:format>
        <dc:type
           rdf:resource="http://purl.org/dc/dcmitype/StillImage" />
      </cc:Work>
    </rdf:RDF>
  </metadata>
  <g
     inkscape:label="Ebene 1"
     inkscape:groupmode="layer"
     id="layer1">
    <rect
       y="273.49545"
       x="150.49544"
       height="79.009109"
       width="169.00911"
       id="rect19664"
       style="opacity:1;fill:#729fcf;fill-opacity:1;stroke:#d3d7cf;stroke-width:0.99088711;stroke-linejoin:round;stroke-miterlimit:4;stroke-dasharray:none;stroke-dashoffset:0;stroke-opacity:1" />
    <rect
       y="74"
       x="0"
       height="20"
       width="1000"
       id="rect9201"
       style="opacity:0.61881193;fill:#204a87;fill-opacity:1;stroke:none;stroke-width:0.760638;stroke-linejoin:round;stroke-miterlimit:4;stroke-dasharray:none;stroke-dashoffset:0;stroke-opacity:1;filter:url(#filter10236)" />
    <g
       id="g4222"
       transform="translate(195,-1)">
      <path
         sodipodi:type="arc"
         style="opacity:0.68069308;fill:url(#radialGradient4240);fill-opacity:1;stroke:none;stroke-width:1;stroke-linejoin:round;stroke-miterlimit:4;stroke-dasharray:none;stroke-dashoffset:0;stroke-opacity:1"
         id="path5095"
         sodipodi:cx="66.46804"
         sodipodi:cy="61.197514"
         sodipodi:rx="14.318913"
         sodipodi:ry="4.8613591"
         d="M 80.786954 61.197514 A 14.318913 4.8613591 0 1 1  52.149127,61.197514 A 14.318913 4.8613591 0 1 1  80.786954 61.197514 z"
         transform="matrix(3.35438,0,0,3.397943,30.75521,-155.98623)" />
      <path
         transform="matrix(2.6349979,0,0,2.6692185,83.86191,-113.1614)"
         d="M 80.786954 61.197514 A 14.318913 4.8613591 0 1 1  52.149127,61.197514 A 14.318913 4.8613591 0 1 1  80.786954 61.197514 z"
         sodipodi:ry="4.8613591"
         sodipodi:rx="14.318913"
         sodipodi:cy="61.197514"
         sodipodi:cx="66.46804"
         id="path5091"
         style="opacity:0.68069308;fill:url(#radialGradient4242);fill-opacity:1;stroke:none;stroke-width:1;stroke-linejoin:round;stroke-miterlimit:4;stroke-dasharray:none;stroke-dashoffset:0;stroke-opacity:1"
         sodipodi:type="arc" />
      <path
         sodipodi:type="arc"
         style="opacity:0.68069308;fill:url(#radialGradient4244);fill-opacity:1;stroke:none;stroke-width:1;stroke-linejoin:round;stroke-miterlimit:4;stroke-dasharray:none;stroke-dashoffset:0;stroke-opacity:1"
         id="path3134"
         sodipodi:cx="66.46804"
         sodipodi:cy="61.197514"
         sodipodi:rx="14.318913"
         sodipodi:ry="4.8613591"
         d="M 80.786954 61.197514 A 14.318913 4.8613591 0 1 1  52.149127,61.197514 A 14.318913 4.8613591 0 1 1  80.786954 61.197514 z"
         transform="matrix(1.9690282,0,0,1.9946,132.34968,-72.786063)" />
      <path
         transform="matrix(1.4612445,0,0,1.4802217,169.60798,-42.347119)"
         d="M 80.786954 61.197514 A 14.318913 4.8613591 0 1 1  52.149127,61.197514 A 14.318913 4.8613591 0 1 1  80.786954 61.197514 z"
         sodipodi:ry="4.8613591"
         sodipodi:rx="14.318913"
         sodipodi:cy="61.197514"
         sodipodi:cx="66.46804"
         id="path2160"
         style="fill:#204a87;fill-opacity:1;stroke:#ffffff;stroke-width:1;stroke-linejoin:round;stroke-miterlimit:4;stroke-dasharray:none;stroke-dashoffset:0;stroke-opacity:0.54726371"
         sodipodi:type="arc" />
      <g
         transform="matrix(0.7869815,0,0,0.7869815,210.66977,0.9342537)"
         id="g9978">
        <path
           sodipodi:nodetypes="csscc"
           id="path9980"
           d="M 88.034802,59.783302 C 88.034802,62.954676 80.550784,65.528544 71.329402,65.528544 C 62.108022,65.528544 53.281272,62.656399 54.624003,59.783302 L 71.329402,24.038058 L 88.034802,59.783302 z "
           style="fill:url(#linearGradient4246);fill-opacity:1;stroke:none;stroke-width:1;stroke-linejoin:round;stroke-miterlimit:4;stroke-dashoffset:0;stroke-opacity:1" />
        <path
           style="fill:#142f57;fill-opacity:0.65671638;stroke:none;stroke-width:1;stroke-linejoin:round;stroke-miterlimit:4;stroke-dashoffset:0;stroke-opacity:1"
           d="M 88.034802,59.783302 C 88.034802,60.576145 87.567051,61.331644 86.72134,62.018919 L 71.329402,24.038058 L 88.034802,59.783302 z "
           id="path9982"
           sodipodi:nodetypes="cccc" />
        <path
           style="opacity:0.52227723;fill:none;fill-opacity:1;stroke:#ffffff;stroke-width:1.17421806;stroke-linejoin:round;stroke-miterlimit:4;stroke-dashoffset:0;stroke-opacity:1"
           d="M 88.034802,59.783302 C 88.034802,62.954676 80.550784,65.528544 71.329402,65.528544 C 62.108022,65.528544 53.281272,62.656399 54.624003,59.783302 L 71.329402,24.038058 L 88.034802,59.783302 z "
           id="path9984"
           sodipodi:nodetypes="csscc" />
        <path
           sodipodi:nodetypes="cccc"
           id="path9986"
           d="M 64.640092,65.03488 C 62.536808,64.720723 60.61092,64.271921 59.015162,63.733334 L 71.329402,24.038058 L 64.640092,65.03488 z "
           style="fill:#eeeeec;fill-opacity:0.65671638;stroke:none;stroke-width:1;stroke-linejoin:round;stroke-miterlimit:4;stroke-dashoffset:0;stroke-opacity:1" />
      </g>
      <g
         transform="matrix(1.2524953,0,0,1.2524953,177.3943,-26.639533)"
         style="opacity:0.71534651"
         id="g9970">
        <path
           style="fill:url(#linearGradient4248);fill-opacity:1;stroke:none;stroke-width:1;stroke-linejoin:round;stroke-miterlimit:4;stroke-dashoffset:0;stroke-opacity:1"
           d="M 88.034802,59.783302 C 88.034802,62.954676 80.550784,65.528544 71.329402,65.528544 C 62.108022,65.528544 53.281272,62.656399 54.624003,59.783302 L 71.329402,24.038058 L 88.034802,59.783302 z "
           id="path3136"
           sodipodi:nodetypes="csscc" />
        <path
           sodipodi:nodetypes="cccc"
           id="path3141"
           d="M 88.034802,59.783302 C 88.034802,60.576145 87.567051,61.331644 86.72134,62.018919 L 71.329402,24.038058 L 88.034802,59.783302 z "
           style="fill:#142f57;fill-opacity:0.65671638;stroke:none;stroke-width:1;stroke-linejoin:round;stroke-miterlimit:4;stroke-dashoffset:0;stroke-opacity:1" />
        <path
           sodipodi:nodetypes="csscc"
           id="path8014"
           d="M 88.034802,59.783302 C 88.034802,62.954676 80.550784,65.528544 71.329402,65.528544 C 62.108022,65.528544 53.281272,62.656399 54.624003,59.783302 L 71.329402,24.038058 L 88.034802,59.783302 z "
           style="opacity:0.52227723;fill:none;fill-opacity:1;stroke:#ffffff;stroke-width:1.17421806;stroke-linejoin:round;stroke-miterlimit:4;stroke-dashoffset:0;stroke-opacity:1" />
        <path
           style="fill:#eeeeec;fill-opacity:0.65671638;stroke:none;stroke-width:1;stroke-linejoin:round;stroke-miterlimit:4;stroke-dashoffset:0;stroke-opacity:1"
           d="M 64.640092,65.03488 C 62.536808,64.720723 60.61092,64.271921 59.015162,63.733334 L 71.329402,24.038058 L 64.640092,65.03488 z "
           id="path9956"
           sodipodi:nodetypes="cccc" />
      </g>
    </g>
    <path
       style="font-size:8.6926012px;font-style:normal;font-weight:normal;fill:#2e3436;fill-opacity:1;stroke:none;stroke-width:1px;stroke-linecap:butt;stroke-linejoin:miter;stroke-opacity:1;font-family:Bitstream Vera Sans"
       d="M 502.59699,59.161264 C 502.14807,59.161264 501.79319,59.337187 501.53235,59.689024 C 501.27149,60.037839 501.14107,60.517073 501.14107,61.126728 C 501.14107,61.736395 501.26998,62.21714 501.52779,62.568989 C 501.78864,62.917803 502.14503,63.092204 502.59699,63.092204 C 503.04284,63.092204 503.3962,62.91628 503.65705,62.564433 C 503.91789,62.212596 504.04833,61.73336 504.04833,61.126728 C 504.04833,60.52314 503.91789,60.045427 503.65705,59.69358 C 503.3962,59.3387 503.04284,59.161264 502.59699,59.161264 M 502.59699,58.451512 C 503.32492,58.451512 503.89667,58.688096 504.31222,59.161264 C 504.72775,59.634432 504.93552,60.28959 504.93553,61.126728 C 504.93552,61.960844 504.72775,62.616004 504.31222,63.092204 C 503.89667,63.565371 503.32492,63.801955 502.59699,63.801955 C 501.86599,63.801955 501.29273,63.565371 500.87719,63.092204 C 500.46469,62.616004 500.25843,61.960844 500.25843,61.126728 C 500.25843,60.28959 500.46469,59.634432 500.87719,59.161264 C 501.29273,58.688096 501.86599,58.451512 502.59699,58.451512 M 507.12847,62.905668 L 507.12847,65.608187 L 506.28677,65.608187 L 506.28677,58.574355 L 507.12847,58.574355 L 507.12847,59.347799 C 507.30439,59.044489 507.52581,58.820038 507.79274,58.67444 C 508.06267,58.525828 508.38419,58.451512 508.75726,58.451512 C 509.37602,58.451512 509.87801,58.697197 510.26322,59.188554 C 510.65146,59.679934 510.84557,60.325993 510.84558,61.126728 C 510.84557,61.927476 510.65146,62.573534 510.26322,63.064902 C 509.87801,63.556272 509.37602,63.801955 508.75726,63.801955 C 508.38419,63.801955 508.06267,63.729162 507.79274,63.583573 C 507.52581,63.434951 507.30439,63.208979 507.12847,62.905668 M 509.9766,61.126728 C 509.9766,60.511007 509.84919,60.028738 509.59441,59.679924 C 509.34266,59.328088 508.99536,59.152162 508.55254,59.152162 C 508.10969,59.152162 507.76088,59.328088 507.5061,59.679924 C 507.25435,60.028738 507.12847,60.511007 507.12847,61.126728 C 507.12847,61.742462 507.25435,62.226242 507.5061,62.578088 C 507.76088,62.926892 508.10969,63.101305 508.55254,63.101305 C 508.99536,63.101305 509.34266,62.926892 509.59441,62.578088 C 509.84919,62.226242 509.9766,61.742462 509.9766,61.126728 M 516.59185,60.912902 L 516.59185,61.322366 L 512.74282,61.322366 C 512.7792,61.898662 512.9521,62.338471 513.26147,62.641782 C 513.57388,62.94206 514.00763,63.092204 514.56269,63.092204 C 514.8842,63.092204 515.19508,63.052768 515.49538,62.973906 C 515.79869,62.895046 516.09897,62.776759 516.39622,62.619036 L 516.39622,63.410683 C 516.09594,63.538069 515.78807,63.635133 515.47263,63.701859 C 515.15718,63.768586 514.83718,63.801955 514.51263,63.801955 C 513.69976,63.801955 513.05523,63.565371 512.57902,63.092204 C 512.10585,62.619036 511.86926,61.979046 511.86926,61.172231 C 511.86926,60.338115 512.09373,59.676901 512.54263,59.188554 C 512.99455,58.697197 513.60269,58.451512 514.36705,58.451512 C 515.05253,58.451512 515.59395,58.672928 515.99129,59.115761 C 516.39166,59.555571 516.59184,60.154613 516.59185,60.912902 M 515.7547,60.667206 C 515.74864,60.209216 515.61973,59.843724 515.36798,59.570738 C 515.11926,59.297763 514.78865,59.161264 514.37615,59.161264 C 513.90904,59.161264 513.53446,59.293206 513.25237,59.557081 C 512.97333,59.820967 512.81257,60.192527 512.7701,60.671762 L 515.7547,60.667206 M 522.20163,60.594412 L 522.20163,63.670012 L 521.36449,63.670012 L 521.36449,60.621714 C 521.36448,60.139446 521.27046,59.778509 521.08241,59.538891 C 520.89435,59.299273 520.61227,59.179465 520.23616,59.179465 C 519.78423,59.179465 519.42783,59.323542 519.16698,59.611684 C 518.90614,59.899829 518.77571,60.292623 518.77571,60.790049 L 518.77571,63.670012 L 517.93401,63.670012 L 517.93401,58.574355 L 518.77571,58.574355 L 518.77571,59.366001 C 518.9759,59.059656 519.21096,58.83065 519.48091,58.678995 C 519.7539,58.52734 520.06783,58.451512 520.4227,58.451512 C 521.00808,58.451512 521.45094,58.633503 521.7512,58.997474 C 522.05149,59.358422 522.20163,59.890738 522.20163,60.594412 M 530.51394,58.769991 L 530.51394,59.552536 C 530.27735,59.422115 530.03925,59.325054 529.79964,59.261349 C 529.56305,59.194632 529.32344,59.161264 529.08078,59.161264 C 528.53785,59.161264 528.11625,59.334154 527.81597,59.679924 C 527.51569,60.02267 527.36555,60.50494 527.36555,61.126728 C 527.36555,61.748529 527.51569,62.232309 527.81597,62.578088 C 528.11625,62.920836 528.53785,63.092204 529.08078,63.092204 C 529.32344,63.092204 529.56305,63.060358 529.79964,62.996664 C 530.03925,62.929937 530.27735,62.831351 530.51394,62.700932 L 530.51394,63.474377 C 530.28038,63.583573 530.03774,63.665467 529.78599,63.720061 C 529.53726,63.774653 529.27186,63.801955 528.98978,63.801955 C 528.2224,63.801955 527.61275,63.560827 527.16082,63.078547 C 526.70887,62.596291 526.4829,61.945677 526.4829,61.126728 C 526.4829,60.295657 526.71039,59.642021 527.16536,59.165808 C 527.62336,58.689619 528.24971,58.451512 529.04439,58.451512 C 529.3022,58.451512 529.55395,58.478814 529.79964,58.533407 C 530.04532,58.584967 530.28342,58.663828 530.51394,58.769991 M 533.95351,59.161264 C 533.5046,59.161264 533.14972,59.337187 532.88888,59.689024 C 532.62803,60.037839 532.49762,60.517073 532.49762,61.126728 C 532.49762,61.736395 532.62652,62.21714 532.88433,62.568989 C 533.14518,62.917803 533.50158,63.092204 533.95351,63.092204 C 534.39939,63.092204 534.75275,62.91628 535.0136,62.564433 C 535.27444,62.212596 535.40487,61.73336 535.40487,61.126728 C 535.40487,60.52314 535.27444,60.045427 535.0136,59.69358 C 534.75275,59.3387 534.39939,59.161264 533.95351,59.161264 M 533.95351,58.451512 C 534.68146,58.451512 535.25321,58.688096 535.66875,59.161264 C 536.08429,59.634432 536.29205,60.28959 536.29206,61.126728 C 536.29205,61.960844 536.08429,62.616004 535.66875,63.092204 C 535.25321,63.565371 534.68146,63.801955 533.95351,63.801955 C 533.22253,63.801955 532.64927,63.565371 532.23373,63.092204 C 531.82121,62.616004 531.61498,61.960844 531.61498,61.126728 C 531.61498,60.28959 531.82121,59.634432 532.23373,59.161264 C 532.64927,58.688096 533.22253,58.451512 533.95351,58.451512 M 541.91094,60.594412 L 541.91094,63.670012 L 541.0738,63.670012 L 541.0738,60.621714 C 541.07379,60.139446 540.97976,59.778509 540.79171,59.538891 C 540.60365,59.299273 540.32158,59.179465 539.94547,59.179465 C 539.49353,59.179465 539.13713,59.323542 538.87629,59.611684 C 538.61544,59.899829 538.48501,60.292623 538.48501,60.790049 L 538.48501,63.670012 L 537.64332,63.670012 L 537.64332,58.574355 L 538.48501,58.574355 L 538.48501,59.366001 C 538.6852,59.059656 538.92026,58.83065 539.19022,58.678995 C 539.4632,58.52734 539.77713,58.451512 540.13201,58.451512 C 540.71739,58.451512 541.16024,58.633503 541.46052,58.997474 C 541.7608,59.358422 541.91094,59.890738 541.91094,60.594412 M 544.41784,57.127539 L 544.41784,58.574355 L 546.14216,58.574355 L 546.14216,59.224957 L 544.41784,59.224957 L 544.41784,61.99118 C 544.41784,62.40671 544.47394,62.67363 544.58616,62.791927 C 544.70143,62.910213 544.93345,62.969362 545.28227,62.969362 L 546.14216,62.969362 L 546.14216,63.670012 L 545.28227,63.670012 C 544.63622,63.670012 544.19034,63.550205 543.94466,63.310586 C 543.69897,63.067935 543.57614,62.628137 543.57614,61.99118 L 543.57614,59.224957 L 542.96193,59.224957 L 542.96193,58.574355 L 543.57614,58.574355 L 543.57614,57.127539 L 544.41784,57.127539 M 551.60635,60.912902 L 551.60635,61.322366 L 547.75731,61.322366 C 547.79371,61.898662 547.9666,62.338471 548.27597,62.641782 C 548.58839,62.94206 549.02212,63.092204 549.57719,63.092204 C 549.89869,63.092204 550.2096,63.052768 550.50988,62.973906 C 550.81318,62.895046 551.11347,62.776759 551.41072,62.619036 L 551.41072,63.410683 C 551.11044,63.538069 550.80257,63.635133 550.48713,63.701859 C 550.17168,63.768586 549.85167,63.801955 549.52715,63.801955 C 548.71427,63.801955 548.06973,63.565371 547.59351,63.092204 C 547.12035,62.619036 546.88376,61.979046 546.88376,61.172231 C 546.88376,60.338115 547.10822,59.676901 547.55713,59.188554 C 548.00906,58.697197 548.61719,58.451512 549.38155,58.451512 C 550.06705,58.451512 550.60845,58.672928 551.0058,59.115761 C 551.40616,59.555571 551.60635,60.154613 551.60635,60.912902 M 550.76922,60.667206 C 550.76314,60.209216 550.63424,59.843724 550.38248,59.570738 C 550.13376,59.297763 549.80316,59.161264 549.39064,59.161264 C 548.92355,59.161264 548.54895,59.293206 548.26687,59.557081 C 547.98783,59.820967 547.82706,60.192527 547.7846,60.671762 L 550.76922,60.667206 M 557.21613,60.594412 L 557.21613,63.670012 L 556.37898,63.670012 L 556.37898,60.621714 C 556.37898,60.139446 556.28496,59.778509 556.09691,59.538891 C 555.90885,59.299273 555.62677,59.179465 555.25066,59.179465 C 554.79873,59.179465 554.44233,59.323542 554.18148,59.611684 C 553.92063,59.899829 553.79021,60.292623 553.79021,60.790049 L 553.79021,63.670012 L 552.94851,63.670012 L 552.94851,58.574355 L 553.79021,58.574355 L 553.79021,59.366001 C 553.99039,59.059656 554.22547,58.83065 554.49541,58.678995 C 554.7684,58.52734 555.08233,58.451512 555.43719,58.451512 C 556.02259,58.451512 556.46543,58.633503 556.76571,58.997474 C 557.06599,59.358422 557.21612,59.890738 557.21613,60.594412 M 559.72302,57.127539 L 559.72302,58.574355 L 561.44736,58.574355 L 561.44736,59.224957 L 559.72302,59.224957 L 559.72302,61.99118 C 559.72302,62.40671 559.77914,62.67363 559.89135,62.791927 C 560.00661,62.910213 560.23865,62.969362 560.58745,62.969362 L 561.44736,62.969362 L 561.44736,63.670012 L 560.58745,63.670012 C 559.9414,63.670012 559.49553,63.550205 559.24986,63.310586 C 559.00417,63.067935 558.88133,62.628137 558.88133,61.99118 L 558.88133,59.224957 L 558.26711,59.224957 L 558.26711,58.574355 L 558.88133,58.574355 L 558.88133,57.127539 L 559.72302,57.127539 M 569.75512,60.594412 L 569.75512,63.670012 L 568.91798,63.670012 L 568.91798,60.621714 C 568.91797,60.139446 568.82394,59.778509 568.63589,59.538891 C 568.44783,59.299273 568.16575,59.179465 567.78964,59.179465 C 567.33771,59.179465 566.98131,59.323542 566.72046,59.611684 C 566.45961,59.899829 566.32918,60.292623 566.32918,60.790049 L 566.32918,63.670012 L 565.4875,63.670012 L 565.4875,58.574355 L 566.32918,58.574355 L 566.32918,59.366001 C 566.52936,59.059656 566.76444,58.83065 567.0344,58.678995 C 567.30737,58.52734 567.6213,58.451512 567.97618,58.451512 C 568.56157,58.451512 569.00442,58.633503 569.30469,58.997474 C 569.60497,59.358422 569.75512,59.890738 569.75512,60.594412 M 575.79256,60.912902 L 575.79256,61.322366 L 571.94351,61.322366 C 571.97991,61.898662 572.1528,62.338471 572.46219,62.641782 C 572.77459,62.94206 573.20832,63.092204 573.76339,63.092204 C 574.08491,63.092204 574.39581,63.052768 574.69608,62.973906 C 574.9994,62.895046 575.29966,62.776759 575.59693,62.619036 L 575.59693,63.410683 C 575.29663,63.538069 574.98878,63.635133 574.67334,63.701859 C 574.35789,63.768586 574.03789,63.801955 573.71335,63.801955 C 572.90046,63.801955 572.25593,63.565371 571.77973,63.092204 C 571.30655,62.619036 571.06998,61.979046 571.06998,61.172231 C 571.06998,60.338115 571.29442,59.676901 571.74333,59.188554 C 572.19526,58.697197 572.80342,58.451512 573.56775,58.451512 C 574.25324,58.451512 574.79466,58.672928 575.19201,59.115761 C 575.59237,59.555571 575.79256,60.154613 575.79256,60.912902 M 574.95542,60.667206 C 574.94934,60.209216 574.82044,59.843724 574.56869,59.570738 C 574.31997,59.297763 573.98936,59.161264 573.57686,59.161264 C 573.10976,59.161264 572.73516,59.293206 572.45308,59.557081 C 572.17403,59.820967 572.01328,60.192527 571.97081,60.671762 L 574.95542,60.667206 M 577.99462,57.127539 L 577.99462,58.574355 L 579.71896,58.574355 L 579.71896,59.224957 L 577.99462,59.224957 L 577.99462,61.99118 C 577.99462,62.40671 578.05073,62.67363 578.16296,62.791927 C 578.27822,62.910213 578.51026,62.969362 578.85907,62.969362 L 579.71896,62.969362 L 579.71896,63.670012 L 578.85907,63.670012 C 578.213,63.670012 577.76714,63.550205 577.52145,63.310586 C 577.27577,63.067935 577.15293,62.628137 577.15293,61.99118 L 577.15293,59.224957 L 576.53871,59.224957 L 576.53871,58.574355 L 577.15293,58.574355 L 577.15293,57.127539 L 577.99462,57.127539 M 580.33771,58.574355 L 581.17486,58.574355 L 582.2213,62.550787 L 583.26317,58.574355 L 584.25046,58.574355 L 585.2969,62.550787 L 586.33877,58.574355 L 587.17592,58.574355 L 585.84285,63.670012 L 584.85557,63.670012 L 583.7591,59.493388 L 582.65805,63.670012 L 581.67078,63.670012 L 580.33771,58.574355 M 590.4244,59.161264 C 589.97549,59.161264 589.62062,59.337187 589.35976,59.689024 C 589.09892,60.037839 588.96849,60.517073 588.96849,61.126728 C 588.96849,61.736395 589.09741,62.21714 589.35522,62.568989 C 589.61608,62.917803 589.97246,63.092204 590.4244,63.092204 C 590.87026,63.092204 591.22363,62.91628 591.48449,62.564433 C 591.74533,62.212596 591.87575,61.73336 591.87576,61.126728 C 591.87575,60.52314 591.74533,60.045427 591.48449,59.69358 C 591.22363,59.3387 590.87026,59.161264 590.4244,59.161264 M 590.4244,58.451512 C 591.15235,58.451512 591.7241,58.688096 592.13963,59.161264 C 592.55517,59.634432 592.76294,60.28959 592.76294,61.126728 C 592.76294,61.960844 592.55517,62.616004 592.13963,63.092204 C 591.7241,63.565371 591.15235,63.801955 590.4244,63.801955 C 589.69341,63.801955 589.12015,63.565371 588.70461,63.092204 C 588.29211,62.616004 588.08584,61.960844 588.08584,61.126728 C 588.08584,60.28959 588.29211,59.634432 588.70461,59.161264 C 589.12015,58.688096 589.69341,58.451512 590.4244,58.451512 M 597.09882,59.3569 C 597.00479,59.302307 596.90165,59.262871 596.78944,59.238603 C 596.68024,59.211311 596.55891,59.197666 596.42546,59.197656 C 595.95229,59.197666 595.58831,59.352355 595.33353,59.661733 C 595.08178,59.968078 594.9559,60.409399 594.9559,60.985696 L 594.9559,63.670012 L 594.11422,63.670012 L 594.11422,58.574355 L 594.9559,58.574355 L 594.9559,59.366001 C 595.13183,59.056622 595.36082,58.827617 595.64291,58.678995 C 595.92499,58.52734 596.26773,58.451512 596.67114,58.451512 C 596.72877,58.451512 596.79246,58.456068 596.86223,58.465157 C 596.93199,58.471225 597.00933,58.481847 597.09426,58.497005 L 597.09882,59.3569 M 597.95416,56.590677 L 598.79586,56.590677 L 598.79586,60.771858 L 601.29365,58.574355 L 602.36281,58.574355 L 599.6603,60.958394 L 602.47656,63.670012 L 601.38464,63.670012 L 598.79586,61.181332 L 598.79586,63.670012 L 597.95416,63.670012 L 597.95416,56.590677"
       id="text12906" />
    <path
       style="font-size:31.07493401px;font-style:normal;font-weight:normal;fill:#2e3436;fill-opacity:1;stroke:none;stroke-width:1px;stroke-linecap:butt;stroke-linejoin:miter;stroke-opacity:1;font-family:Bitstream Vera Sans"
       d="M 508.53235,38.053606 C 506.91781,38.053622 505.64146,38.686344 504.70329,39.951774 C 503.7651,41.206324 503.29603,42.929948 503.29603,45.122647 C 503.29603,47.315368 503.75966,49.044445 504.68692,50.309885 C 505.62509,51.564425 506.9069,52.191693 508.53235,52.19169 C 510.13597,52.191693 511.40686,51.558971 512.34505,50.293522 C 513.28321,49.028082 513.7523,47.304459 513.75232,45.122647 C 513.7523,42.951766 513.28321,41.233597 512.34505,39.968138 C 511.40686,38.691799 510.13597,38.053622 508.53235,38.053606 M 508.53235,35.500897 C 511.15051,35.500915 513.20685,36.351817 514.7014,38.053606 C 516.19592,39.755427 516.94318,42.111772 516.9432,45.122647 C 516.94318,48.122633 516.19592,50.478979 514.7014,52.19169 C 513.20685,53.893498 511.15051,54.7444 508.53235,54.7444 C 505.90328,54.7444 503.84146,53.893498 502.34694,52.19169 C 500.86331,50.478979 500.1215,48.122633 500.1215,45.122647 C 500.1215,42.111772 500.86331,39.755427 502.34694,38.053606 C 503.84146,36.351817 505.90328,35.500915 508.53235,35.500897 M 540.34305,31.720923 L 540.34305,35.206353 C 539.23031,34.170016 538.04121,33.395476 536.7758,32.882731 C 535.52125,32.37003 534.18488,32.113668 532.76673,32.113646 C 529.97401,32.113668 527.83585,32.970025 526.35222,34.68272 C 524.8686,36.384544 524.12679,38.84998 524.12679,42.079033 C 524.12679,45.297202 524.8686,47.762637 526.35222,49.475345 C 527.83585,51.177155 529.97401,52.028057 532.76673,52.028055 C 534.18488,52.028057 535.52125,51.771696 536.7758,51.25897 C 538.04121,50.74625 539.23031,49.97171 540.34305,48.935349 L 540.34305,52.388053 C 539.18666,53.173504 537.95941,53.76259 536.66126,54.155313 C 535.37397,54.548038 534.01035,54.7444 532.57037,54.7444 C 528.8722,54.7444 525.9595,53.615318 523.83225,51.357152 C 521.70498,49.088081 520.64136,45.995377 520.64136,42.079033 C 520.64136,38.151803 521.70498,35.059099 523.83225,32.800915 C 525.9595,30.531863 528.8722,29.397327 532.57037,29.397301 C 534.03216,29.397327 535.4067,29.593688 536.69397,29.986388 C 537.99212,30.368228 539.20848,30.946405 540.34305,31.720923 M 552.45205,38.053606 C 550.83751,38.053622 549.56115,38.686344 548.62298,39.951774 C 547.68481,41.206324 547.21572,42.929948 547.21572,45.122647 C 547.21572,47.315368 547.67935,49.044445 548.60662,50.309885 C 549.54479,51.564425 550.8266,52.191693 552.45205,52.19169 C 554.05566,52.191693 555.32657,51.558971 556.26475,50.293522 C 557.20291,49.028082 557.67201,47.304459 557.67202,45.122647 C 557.67201,42.951766 557.20291,41.233597 556.26475,39.968138 C 555.32657,38.691799 554.05566,38.053622 552.45205,38.053606 M 552.45205,35.500897 C 555.0702,35.500915 557.12655,36.351817 558.62111,38.053606 C 560.11562,39.755427 560.86288,42.111772 560.8629,45.122647 C 560.86288,48.122633 560.11562,50.478979 558.62111,52.19169 C 557.12655,53.893498 555.0702,54.7444 552.45205,54.7444 C 549.82297,54.7444 547.76117,53.893498 546.26664,52.19169 C 544.783,50.478979 544.04121,48.122633 544.04121,45.122647 C 544.04121,42.111772 544.783,39.755427 546.26664,38.053606 C 547.76117,36.351817 549.82297,35.500915 552.45205,35.500897 M 581.07185,43.208115 L 581.07185,54.269858 L 578.06096,54.269858 L 578.06096,43.306297 C 578.06095,41.571777 577.72277,40.273605 577.04643,39.411778 C 576.37005,38.549981 575.35552,38.119076 574.00281,38.11906 C 572.37736,38.119076 571.09554,38.637253 570.15739,39.673594 C 569.2192,40.709965 568.75012,42.122681 568.75012,43.911748 L 568.75012,54.269858 L 565.72287,54.269858 L 565.72287,35.942711 L 568.75012,35.942711 L 568.75012,38.789964 C 569.47011,37.68817 570.31556,36.86454 571.28646,36.319072 C 572.26827,35.77364 573.39735,35.500915 574.67372,35.500897 C 576.77914,35.500915 578.37186,36.155455 579.45186,37.46452 C 580.53184,38.762707 581.07183,40.677237 581.07185,43.208115 M 602.78625,44.353562 L 602.78625,45.82628 L 588.94271,45.82628 C 589.0736,47.899 589.69543,49.480805 590.80815,50.571702 C 591.93177,51.651698 593.49176,52.191693 595.48811,52.19169 C 596.64446,52.191693 597.76263,52.049876 598.84264,51.766239 C 599.93353,51.482607 601.0135,51.057156 602.08261,50.489884 L 602.08261,53.337138 C 601.0026,53.795317 599.89534,54.144405 598.76081,54.384403 C 597.62627,54.624401 596.47538,54.7444 595.30812,54.7444 C 592.38449,54.7444 590.06632,53.893498 588.35362,52.19169 C 586.65181,50.489888 585.80091,48.188087 585.80091,45.286284 C 585.80091,42.286317 586.60817,39.908152 588.2227,38.151786 C 589.84815,36.384544 592.03541,35.500915 594.78449,35.500897 C 597.24991,35.500915 599.19716,36.297272 600.62626,37.889971 C 602.06623,39.471792 602.78623,41.626322 602.78625,44.353562 M 599.77536,43.469931 C 599.75352,41.822684 599.28989,40.508148 598.38446,39.526323 C 597.48991,38.544526 596.30083,38.053622 594.81721,38.053606 C 593.13721,38.053622 591.78996,38.528163 590.77542,39.477232 C 589.77178,40.42633 589.19361,41.762684 589.04089,43.486296 L 599.77536,43.469931"
       id="text12910" />
    <rect
       style="opacity:1;fill:#2e3436;fill-opacity:1;stroke:none;stroke-width:0.760638;stroke-linejoin:round;stroke-miterlimit:4;stroke-dasharray:none;stroke-dashoffset:0;stroke-opacity:1"
       id="rect8230"
       width="1000"
       height="20"
       x="0"
       y="74" />
    <text
       xml:space="preserve"
       style="font-size:11px;font-style:normal;font-variant:normal;font-weight:normal;font-stretch:normal;text-align:start;line-height:125%;writing-mode:lr-tb;text-anchor:start;fill:#eeeeec;fill-opacity:1;stroke:none;stroke-width:1px;stroke-linecap:butt;stroke-linejoin:miter;stroke-opacity:1;font-family:Bitstream Vera Serif"
       x="330"
       y="88"
       id="text11209"
       sodipodi:linespacing="125%"><tspan
         sodipodi:role="line"
         id="tspan11211"
         x="330"
         y="88">Blog</tspan></text>
    <rect
       style="opacity:1;fill:#555753;fill-opacity:1;stroke:none;stroke-width:1;stroke-linejoin:round;stroke-miterlimit:4;stroke-dasharray:none;stroke-dashoffset:0;stroke-opacity:1"
       id="rect20771"
       width="50"
       height="20"
       x="371"
       y="74" />
    <text
       sodipodi:linespacing="125%"
       id="text12182"
       y="88"
       x="380"
       style="font-size:11px;font-style:normal;font-variant:normal;font-weight:normal;font-stretch:normal;text-align:start;line-height:125%;writing-mode:lr-tb;text-anchor:start;fill:#eeeeec;fill-opacity:1;stroke:none;stroke-width:1px;stroke-linecap:butt;stroke-linejoin:miter;stroke-opacity:1;font-family:Bitstream Vera Serif"
       xml:space="preserve"><tspan
         y="88"
         x="380"
         id="tspan12184"
         sodipodi:role="line">About</tspan></text>
    <text
       xml:space="preserve"
       style="font-size:11px;font-style:normal;font-variant:normal;font-weight:normal;font-stretch:normal;text-align:start;line-height:125%;writing-mode:lr-tb;text-anchor:start;fill:#eeeeec;fill-opacity:1;stroke:none;stroke-width:1px;stroke-linecap:butt;stroke-linejoin:miter;stroke-opacity:1;font-family:Bitstream Vera Serif"
       x="430"
       y="88"
       id="text12186"
       sodipodi:linespacing="125%"><tspan
         sodipodi:role="line"
         id="tspan12188"
         x="430"
         y="88">Documentation</tspan></text>
    <text
       sodipodi:linespacing="125%"
       id="text12190"
       y="88"
       x="533"
       style="font-size:11px;font-style:normal;font-variant:normal;font-weight:normal;font-stretch:normal;text-align:start;line-height:125%;writing-mode:lr-tb;text-anchor:start;fill:#eeeeec;fill-opacity:1;stroke:none;stroke-width:1px;stroke-linecap:butt;stroke-linejoin:miter;stroke-opacity:1;font-family:Bitstream Vera Serif"
       xml:space="preserve"><tspan
         y="88"
         x="533"
         id="tspan12192"
         sodipodi:role="line">Mailinglist</tspan></text>
    <text
       xml:space="preserve"
       style="font-size:11px;font-style:normal;font-variant:normal;font-weight:normal;font-stretch:normal;text-align:start;line-height:125%;writing-mode:lr-tb;text-anchor:start;fill:#eeeeec;fill-opacity:1;stroke:none;stroke-width:1px;stroke-linecap:butt;stroke-linejoin:miter;stroke-opacity:1;font-family:Bitstream Vera Serif"
       x="613"
       y="88"
       id="text12194"
       sodipodi:linespacing="125%"><tspan
         sodipodi:role="line"
         id="tspan12196"
         x="613"
         y="88">Download</tspan></text>
    <text
       xml:space="preserve"
       style="font-size:18px;font-style:normal;font-variant:normal;font-weight:normal;font-stretch:normal;text-align:start;line-height:125%;writing-mode:lr-tb;text-anchor:start;fill:#000000;fill-opacity:1;stroke:none;stroke-width:1px;stroke-linecap:butt;stroke-linejoin:miter;stroke-opacity:1;font-family:Bitstream Vera Serif"
       x="330"
       y="132"
       id="text12202"
       sodipodi:linespacing="125%"><tspan
         sodipodi:role="line"
         id="tspan12204"
         x="330"
         y="132">The name</tspan></text>
    <text
       xml:space="preserve"
       style="font-size:11px;font-style:normal;font-variant:normal;font-weight:normal;font-stretch:normal;text-align:start;line-height:100%;writing-mode:lr-tb;text-anchor:start;fill:#2e3436;fill-opacity:1;stroke:none;stroke-width:1px;stroke-linecap:butt;stroke-linejoin:miter;stroke-opacity:1;font-family:Bitstream Vera Serif"
       x="330.70709"
       y="158.6152"
       id="text12206"
       sodipodi:linespacing="100%"><tspan
         sodipodi:role="line"
         id="tspan12216"
         x="330.70709"
         y="158.6152">       The name oCone derivates from &quot;Open Content Network&quot; and shows the goal of oCone </tspan><tspan
         sodipodi:role="line"
         id="tspan12218"
         x="330.70709"
         y="169.6152">to build up a network of free and open available content.</tspan></text>
    <text
       xml:space="preserve"
       style="font-size:18px;font-style:normal;font-variant:normal;font-weight:normal;font-stretch:normal;text-align:start;line-height:125%;writing-mode:lr-tb;text-anchor:start;fill:#000000;fill-opacity:1;stroke:none;stroke-width:1px;stroke-linecap:butt;stroke-linejoin:miter;stroke-opacity:1;font-family:Bitstream Vera Serif"
       x="330.92596"
       y="212.09633"
       id="text12220"
       sodipodi:linespacing="125%"><tspan
         sodipodi:role="line"
         id="tspan12222"
         x="330.92596"
         y="212.09633">The goal</tspan></text>
    <text
       sodipodi:linespacing="100%"
       id="text12224"
       y="239.6152"
       x="330.70709"
       style="font-size:11px;font-style:normal;font-variant:normal;font-weight:normal;font-stretch:normal;text-align:start;line-height:100%;writing-mode:lr;text-anchor:start;fill:#2e3436;fill-opacity:1;stroke:none;stroke-width:1px;stroke-linecap:butt;stroke-linejoin:miter;stroke-opacity:1;font-family:Bitstream Vera Serif"
       xml:space="preserve"><tspan
         sodipodi:role="line"
         id="tspan12542"
         x="330.70709"
         y="239.6152">       The worlds evolution mainly bases on information, or content. The internet shows a </tspan><tspan
         sodipodi:role="line"
         id="tspan12544"
         x="330.70709"
         y="250.6152">fantastic infrastructure to publish content and make it available for everyone in the world, </tspan><tspan
         sodipodi:role="line"
         id="tspan12546"
         x="330.70709"
         y="261.6152">but it has some draw backs.</tspan><tspan
         sodipodi:role="line"
         id="tspan12548"
         x="330.70709"
         y="272.6152"></tspan><tspan
         sodipodi:role="line"
         id="tspan12550"
         x="330.70709"
         y="283.6152">       Content is normally published using HTML (or XHTML) which only describes visible </tspan><tspan
         sodipodi:role="line"
         id="tspan12552"
         x="330.70709"
         y="294.6152">formats and does not structure the content in a senseful semantical way. Even there are a </tspan><tspan
         sodipodi:role="line"
         id="tspan12554"
         x="330.70709"
         y="305.6152">lot of initiatives to change this it will take some time to update / transform all content. </tspan><tspan
         sodipodi:role="line"
         id="tspan12556"
         x="330.70709"
         y="316.6152">There are some persons who say that they are  a lot of companies and persons who do not </tspan><tspan
         sodipodi:role="line"
         id="tspan12558"
         x="330.70709"
         y="327.6152">even want their content to be really readable.</tspan><tspan
         sodipodi:role="line"
         id="tspan12560"
         x="330.70709"
         y="338.6152"></tspan><tspan
         sodipodi:role="line"
         id="tspan12562"
         x="330.70709"
         y="349.6152">       The infrastructure of the internet is pretty stable but the number of users and potential</tspan><tspan
         sodipodi:role="line"
         id="tspan12564"
         x="330.70709"
         y="360.6152">hits on a single website caused by famous news sites requires expensive infrastructures to </tspan><tspan
         sodipodi:role="line"
         id="tspan12566"
         x="330.70709"
         y="371.6152">serve those. This is something only big institutions or comapanies can afford.</tspan><tspan
         sodipodi:role="line"
         id="tspan12568"
         x="330.70709"
         y="382.6152"></tspan><tspan
         sodipodi:role="line"
         id="tspan12570"
         x="330.70709"
         y="393.6152">       oCone tries to solve this by building a peer to peer network, where each peer can grab </tspan><tspan
         sodipodi:role="line"
         id="tspan12572"
         x="330.70709"
         y="404.6152">content from the web (if allowed), transform it into semantic XML and offer it to the other</tspan><tspan
         sodipodi:role="line"
         id="tspan12574"
         x="330.70709"
         y="415.6152">peers. In a network each peer will cache the requested contents and will reduce the load on</tspan><tspan
         sodipodi:role="line"
         id="tspan12576"
         x="330.70709"
         y="426.6152">the requested sites this way. With enough capacity in the peers caches oCone will even be</tspan><tspan
         sodipodi:role="line"
         id="tspan12578"
         x="330.70709"
         y="437.6152">able to mirror complete webpages for use in networks not connected with the internet, or </tspan><tspan
         sodipodi:role="line"
         id="tspan12580"
         x="330.70709"
         y="448.6152">serve content for websites which are offline during the request.</tspan></text>
    <text
       xml:space="preserve"
       style="font-size:11px;font-style:normal;font-variant:normal;font-weight:normal;font-stretch:normal;text-align:start;line-height:100%;writing-mode:lr-tb;text-anchor:start;fill:#2e3436;fill-opacity:1;stroke:none;stroke-width:1px;stroke-linecap:butt;stroke-linejoin:miter;stroke-opacity:1;font-family:Bitstream Vera Serif"
       x="154"
       y="124"
       id="text12582"
       sodipodi:linespacing="100%"><tspan
         sodipodi:role="line"
         id="tspan12586"
         x="154"
         y="124">Blog</tspan><tspan
         sodipodi:role="line"
         id="tspan12588"
         x="154"
         y="135">About</tspan><tspan
         sodipodi:role="line"
         id="tspan12590"
         x="154"
         y="146">  Authors</tspan><tspan
         sodipodi:role="line"
         id="tspan12592"
         x="154"
         y="157">  Design</tspan><tspan
         sodipodi:role="line"
         id="tspan12594"
         x="154"
         y="168">  Source repoistory</tspan><tspan
         sodipodi:role="line"
         id="tspan12596"
         x="154"
         y="179">Documentation</tspan><tspan
         sodipodi:role="line"
         id="tspan12598"
         x="154"
         y="190">Mailinglist</tspan><tspan
         sodipodi:role="line"
         id="tspan12600"
         x="154"
         y="201">  Contribute</tspan><tspan
         sodipodi:role="line"
         id="tspan12602"
         x="154"
         y="212">Download</tspan><tspan
         sodipodi:role="line"
         id="tspan12604"
         x="154"
         y="223">  JoCone</tspan><tspan
         sodipodi:role="line"
         id="tspan12606"
         x="154"
         y="234">  Firefox extension</tspan><tspan
         sodipodi:role="line"
         id="tspan12608"
         x="154"
         y="245">  Client</tspan><tspan
         sodipodi:role="line"
         id="tspan12610"
         x="154"
         y="256">  phoCone</tspan></text>
    <rect
       style="opacity:1;fill:#ffffff;fill-opacity:1;stroke:#d3d7cf;stroke-width:0.99088711;stroke-linejoin:round;stroke-miterlimit:4;stroke-dasharray:none;stroke-dashoffset:0;stroke-opacity:1"
       id="rect12612"
       width="169.00911"
       height="79.009109"
       x="150.49544"
       y="273.49545" />
    <g
       id="g13750"
       transform="translate(157.9584,287.73215)">
      <g
         id="layer2"
         inkscape:label="pix">
        <g
           transform="matrix(2.411405e-2,0,0,1.929202e-2,45.48953,41.75228)"
           id="g5022"
           style="display:inline">
          <rect
             style="opacity:0.40206185;color:#000000;fill:url(#linearGradient5027);fill-opacity:1;fill-rule:nonzero;stroke:none;stroke-width:1;stroke-linecap:round;stroke-linejoin:miter;marker:none;marker-start:none;marker-mid:none;marker-end:none;stroke-miterlimit:4;stroke-dasharray:none;stroke-dashoffset:0;stroke-opacity:1;visibility:visible;display:inline;overflow:visible"
             id="rect4173"
             width="1339.6335"
             height="478.35718"
             x="-1559.2523"
             y="-150.69685" />
          <path
             style="opacity:0.40206185;color:#000000;fill:url(#radialGradient5029);fill-opacity:1;fill-rule:nonzero;stroke:none;stroke-width:1;stroke-linecap:round;stroke-linejoin:miter;marker:none;marker-start:none;marker-mid:none;marker-end:none;stroke-miterlimit:4;stroke-dasharray:none;stroke-dashoffset:0;stroke-opacity:1;visibility:visible;display:inline;overflow:visible"
             d="M -219.61876,-150.68038 C -219.61876,-150.68038 -219.61876,327.65041 -219.61876,327.65041 C -76.744594,328.55086 125.78146,220.48075 125.78138,88.454235 C 125.78138,-43.572302 -33.655436,-150.68036 -219.61876,-150.68038 z "
             id="path5058"
             sodipodi:nodetypes="cccc" />
          <path
             sodipodi:nodetypes="cccc"
             id="path5018"
             d="M -1559.2523,-150.68038 C -1559.2523,-150.68038 -1559.2523,327.65041 -1559.2523,327.65041 C -1702.1265,328.55086 -1904.6525,220.48075 -1904.6525,88.454235 C -1904.6525,-43.572302 -1745.2157,-150.68036 -1559.2523,-150.68038 z "
             style="opacity:0.40206185;color:#000000;fill:url(#radialGradient5031);fill-opacity:1;fill-rule:nonzero;stroke:none;stroke-width:1;stroke-linecap:round;stroke-linejoin:miter;marker:none;marker-start:none;marker-mid:none;marker-end:none;stroke-miterlimit:4;stroke-dasharray:none;stroke-dashoffset:0;stroke-opacity:1;visibility:visible;display:inline;overflow:visible" />
        </g>
        <path
           style="fill:none;fill-opacity:1;fill-rule:evenodd;stroke:#535353;stroke-width:2;stroke-linecap:round;stroke-linejoin:round;stroke-miterlimit:4;stroke-dasharray:none;stroke-opacity:1"
           d="M 11.28569,13.087628 C 10.66069,13.087628 10.254441,13.377808 10.004442,13.931381 C 10.004441,13.931381 3.5356915,31.034938 3.5356915,31.034938 C 3.5356915,31.034938 3.2856915,31.706497 3.2856915,32.816188 C 3.2856915,32.816188 3.2856915,42.466156 3.2856915,42.466156 C 3.2856915,43.548769 3.943477,44.091158 4.9419415,44.091156 L 43.50444,44.091156 C 44.489293,44.091156 45.09819,43.372976 45.09819,42.247406 L 45.09819,32.597438 C 45.09819,32.597438 45.204153,31.827015 45.00444,31.284938 L 38.28569,14.087631 C 38.101165,13.575725 37.648785,13.099533 37.16069,13.087628 L 11.28569,13.087628 z "
           id="path4196"
           sodipodi:nodetypes="cccsccccccccc" />
        <path
           style="fill:url(#linearGradient4234);fill-opacity:1;fill-rule:evenodd;stroke:none;stroke-width:1.02044296px;stroke-linecap:butt;stroke-linejoin:miter;stroke-opacity:1"
           d="M 3.2735915,32.121812 L 4.0381936,31.429597 L 41.647883,31.492097 L 45.11029,31.809395 L 45.11029,42.247927 C 45.11029,43.373496 44.503272,44.091258 43.518419,44.091258 L 4.9354314,44.091258 C 3.9369667,44.091258 3.2735915,43.549207 3.2735915,42.466594 L 3.2735915,32.121812 z "
           id="path4170"
           sodipodi:nodetypes="ccccccccc" />
        <path
           style="fill:url(#radialGradient4250);fill-opacity:1;fill-rule:evenodd;stroke:none;stroke-width:1px;stroke-linecap:butt;stroke-linejoin:miter;stroke-opacity:1"
           d="M 3.5490842,31.039404 C 2.8347985,32.50369 3.5484686,33.432261 4.5847985,33.432261 C 4.5847985,33.432261 43.584797,33.432261 43.584797,33.432261 C 44.703844,33.408451 45.430035,32.420356 45.013368,31.289403 L 38.299082,14.078704 C 38.114558,13.566798 37.64432,13.090606 37.156225,13.078701 L 11.299083,13.078701 C 10.674083,13.078701 10.263369,13.382274 10.01337,13.935847 C 10.01337,13.935847 3.5490842,31.039404 3.5490842,31.039404 z "
           id="path3093"
           sodipodi:nodetypes="csccccccs" />
        <rect
           style="opacity:1;color:#000000;fill:url(#linearGradient4209);fill-opacity:1;fill-rule:evenodd;stroke:none;stroke-width:2.40899992;stroke-linecap:round;stroke-linejoin:round;marker:none;marker-start:none;marker-mid:none;marker-end:none;stroke-miterlimit:4;stroke-dasharray:none;stroke-dashoffset:0;stroke-opacity:1;visibility:visible;display:inline;overflow:visible"
           id="rect4174"
           width="17.625"
           height="5.5625"
           x="7.857996"
           y="36.299183" />
        <path
           style="opacity:0.81142853;fill:url(#linearGradient4242);fill-opacity:1;fill-rule:evenodd;stroke:none;stroke-width:1px;stroke-linecap:butt;stroke-linejoin:miter;stroke-opacity:1"
           d="M 7.8579947,41.86168 C 7.8579947,41.86168 7.8579947,37.850195 7.8579947,37.850195 C 9.6935221,41.029421 16.154485,41.86168 20.795492,41.86168 C 20.795492,41.86168 7.8579947,41.86168 7.8579947,41.86168 z "
           id="path4194"
           sodipodi:nodetypes="cscc" />
        <path
           style="fill:#ffffff;fill-opacity:1;fill-rule:evenodd;stroke:none;stroke-width:1px;stroke-linecap:butt;stroke-linejoin:miter;stroke-opacity:1"
           d="M 44.796162,30.753688 C 44.859684,32.003662 44.382159,33.069528 43.474046,33.097438 C 43.474046,33.097438 5.3553296,33.097437 5.3553297,33.097438 C 4.0660978,33.097438 3.4875937,32.772491 3.271279,32.229382 C 3.3630404,33.173714 4.0970964,33.878688 5.3553297,33.878688 C 5.3553296,33.878687 43.474046,33.878688 43.474046,33.878688 C 44.550053,33.845617 45.226851,32.454664 44.82621,30.883897 L 44.796162,30.753688 z "
           id="path4201"
           sodipodi:nodetypes="cccccccc" />
        <path
           style="opacity:0.69142857;color:#000000;fill:url(#linearGradient4272);fill-opacity:1;fill-rule:evenodd;stroke:none;stroke-width:2;stroke-linecap:round;stroke-linejoin:round;marker:none;marker-start:none;marker-mid:none;marker-end:none;stroke-miterlimit:4;stroke-dasharray:none;stroke-dashoffset:0;stroke-opacity:1;visibility:visible;display:inline;overflow:visible"
           d="M 10.96875,15.28125 C 10.922675,15.481571 10.78125,15.668047 10.78125,15.875 C 10.78125,16.823605 11.37223,17.664474 12.125,18.46875 C 12.365268,18.314675 12.490117,18.114342 12.75,17.96875 C 11.809691,17.152746 11.196604,16.252168 10.96875,15.28125 z M 37.625,15.28125 C 37.396273,16.250866 36.782988,17.153676 35.84375,17.96875 C 36.117894,18.122332 36.247738,18.33699 36.5,18.5 C 37.257262,17.693344 37.8125,16.826956 37.8125,15.875 C 37.8125,15.668047 37.670906,15.481571 37.625,15.28125 z M 39.8125,23.71875 C 39.198709,27.758861 32.513887,30.96875 24.28125,30.96875 C 16.068996,30.968751 9.4211001,27.775964 8.78125,23.75 C 8.7488928,23.947132 8.65625,24.141882 8.65625,24.34375 C 8.6562503,28.661697 15.645354,32.187501 24.28125,32.1875 C 32.917146,32.1875 39.937499,28.661698 39.9375,24.34375 C 39.9375,24.130826 39.848449,23.926394 39.8125,23.71875 z "
           id="path4211" />
        <path
           sodipodi:type="arc"
           style="opacity:1;color:#000000;fill:#ffffff;fill-opacity:0.45762706;fill-rule:evenodd;stroke:none;stroke-width:2;stroke-linecap:round;stroke-linejoin:round;marker:none;marker-start:none;marker-mid:none;marker-end:none;stroke-miterlimit:4;stroke-dasharray:none;stroke-dashoffset:0;stroke-opacity:1;visibility:visible;display:inline;overflow:visible"
           id="path4224"
           sodipodi:cx="7.2036505"
           sodipodi:cy="25.593554"
           sodipodi:rx="1.3700194"
           sodipodi:ry="1.016466"
           d="M 8.5736699 25.593554 A 1.3700194 1.016466 0 1 1  5.833631,25.593554 A 1.3700194 1.016466 0 1 1  8.5736699 25.593554 z"
           transform="translate(8.838843e-2,5.30178)" />
        <path
           transform="translate(33.96705,5.21339)"
           d="M 8.5736699 25.593554 A 1.3700194 1.016466 0 1 1  5.833631,25.593554 A 1.3700194 1.016466 0 1 1  8.5736699 25.593554 z"
           sodipodi:ry="1.016466"
           sodipodi:rx="1.3700194"
           sodipodi:cy="25.593554"
           sodipodi:cx="7.2036505"
           id="path4226"
           style="opacity:1;color:#000000;fill:#ffffff;fill-opacity:0.45762706;fill-rule:evenodd;stroke:none;stroke-width:2;stroke-linecap:round;stroke-linejoin:round;marker:none;marker-start:none;marker-mid:none;marker-end:none;stroke-miterlimit:4;stroke-dasharray:none;stroke-dashoffset:0;stroke-opacity:1;visibility:visible;display:inline;overflow:visible"
           sodipodi:type="arc" />
        <path
           sodipodi:nodetypes="cccsccccccccc"
           id="path4252"
           d="M 11.642515,13.540723 C 11.040823,13.540723 10.649724,13.820081 10.409049,14.35301 C 10.409048,14.35301 3.9940341,30.943732 3.9940341,30.943732 C 3.9940341,30.943732 3.7533573,31.590247 3.7533573,32.658555 C 3.7533573,32.658555 3.7533573,41.948651 3.7533573,41.948651 C 3.7533573,43.303391 4.1974134,43.57555 5.3478414,43.57555 L 43.034746,43.57555 C 44.357872,43.57555 44.569062,43.259153 44.569062,41.738058 L 44.569062,32.447962 C 44.569062,32.447962 44.671072,31.706271 44.478807,31.184409 L 37.885616,14.378434 C 37.707973,13.885617 37.334964,13.552184 36.865071,13.540723 L 11.642515,13.540723 z "
           style="fill:none;fill-opacity:1;fill-rule:evenodd;stroke:url(#linearGradient4260);stroke-width:1.00000024;stroke-linecap:round;stroke-linejoin:round;stroke-miterlimit:4;stroke-dasharray:none;stroke-opacity:1" />
        <path
           id="path4282"
           d="M 40.5,36.554166 L 40.5,41.575101"
           style="fill:none;fill-opacity:0.75;fill-rule:evenodd;stroke:#ffffff;stroke-width:1.00000048px;stroke-linecap:square;stroke-linejoin:miter;stroke-opacity:0.42372885" />
        <path
           style="fill:none;fill-opacity:0.75;fill-rule:evenodd;stroke:#ffffff;stroke-width:1.00000048px;stroke-linecap:square;stroke-linejoin:miter;stroke-opacity:0.42372885"
           d="M 38.5,36.613943 L 38.5,41.634878"
           id="path4284" />
        <path
           id="path4286"
           d="M 36.5,36.613943 L 36.5,41.634878"
           style="fill:none;fill-opacity:0.75;fill-rule:evenodd;stroke:#ffffff;stroke-width:1.00000048px;stroke-linecap:square;stroke-linejoin:miter;stroke-opacity:0.42372885" />
        <path
           style="fill:none;fill-opacity:0.75;fill-rule:evenodd;stroke:#ffffff;stroke-width:1.00000048px;stroke-linecap:square;stroke-linejoin:miter;stroke-opacity:0.42372885"
           d="M 34.5,36.613943 L 34.5,41.634878"
           id="path4288" />
        <path
           id="path4290"
           d="M 32.5,36.613943 L 32.5,41.634878"
           style="fill:none;fill-opacity:0.75;fill-rule:evenodd;stroke:#ffffff;stroke-width:1.00000048px;stroke-linecap:square;stroke-linejoin:miter;stroke-opacity:0.42372885" />
        <path
           style="fill:none;fill-opacity:0.75;fill-rule:evenodd;stroke:#ffffff;stroke-width:1.00000048px;stroke-linecap:square;stroke-linejoin:miter;stroke-opacity:0.42372885"
           d="M 30.5,36.613943 L 30.5,41.634878"
           id="path4292" />
        <path
           style="opacity:0.09714284;fill:none;fill-opacity:0.75;fill-rule:evenodd;stroke:#000000;stroke-width:1.00000048px;stroke-linecap:square;stroke-linejoin:miter;stroke-opacity:1"
           d="M 39.5,36.604065 L 39.5,41.625"
           id="path4294" />
        <path
           id="path4296"
           d="M 37.5,36.663842 L 37.5,41.684777"
           style="opacity:0.09714284;fill:none;fill-opacity:0.75;fill-rule:evenodd;stroke:#000000;stroke-width:1.00000048px;stroke-linecap:square;stroke-linejoin:miter;stroke-opacity:1" />
        <path
           style="opacity:0.09714284;fill:none;fill-opacity:0.75;fill-rule:evenodd;stroke:#000000;stroke-width:1.00000048px;stroke-linecap:square;stroke-linejoin:miter;stroke-opacity:1"
           d="M 35.5,36.663842 L 35.5,41.684777"
           id="path4298" />
        <path
           id="path4300"
           d="M 33.5,36.663842 L 33.5,41.684777"
           style="opacity:0.09714284;fill:none;fill-opacity:0.75;fill-rule:evenodd;stroke:#000000;stroke-width:1.00000048px;stroke-linecap:square;stroke-linejoin:miter;stroke-opacity:1" />
        <path
           style="opacity:0.09714284;fill:none;fill-opacity:0.75;fill-rule:evenodd;stroke:#000000;stroke-width:1.00000048px;stroke-linecap:square;stroke-linejoin:miter;stroke-opacity:1"
           d="M 31.5,36.663842 L 31.5,41.684777"
           id="path4302" />
        <path
           style="opacity:0.43999999;fill:#ffffff;fill-opacity:1;fill-rule:evenodd;stroke:none;stroke-width:1px;stroke-linecap:butt;stroke-linejoin:miter;stroke-opacity:1"
           d="M 7.875,36.3125 L 7.875,41.84375 L 20.4375,41.84375 L 8.21875,41.5 L 7.875,36.3125 z "
           id="path4572" />
        <path
           transform="matrix(1.037815,0,0,1.060747,-1.632878,3.03037)"
           d="M 39.875 19.5625 A 14.875 6.6875 0 1 1  10.125,19.5625 A 14.875 6.6875 0 1 1  39.875 19.5625 z"
           sodipodi:ry="6.6875"
           sodipodi:rx="14.875"
           sodipodi:cy="19.5625"
           sodipodi:cx="25"
           id="path2545"
           style="opacity:0.20571427;color:#000000;fill:url(#linearGradient2553);fill-opacity:1;fill-rule:evenodd;stroke:none;stroke-width:0.93365198;stroke-linecap:square;stroke-linejoin:round;marker:none;marker-start:none;marker-mid:none;marker-end:none;stroke-miterlimit:4;stroke-dasharray:none;stroke-dashoffset:0;stroke-opacity:0.42372879;visibility:visible;display:inline;overflow:visible"
           sodipodi:type="arc" />
      </g>
      <g
         inkscape:label="down"
         id="g13780">
        <path
           sodipodi:type="arc"
           style="opacity:0.14117647;color:#000000;fill:url(#radialGradient8668);fill-opacity:1;fill-rule:evenodd;stroke:none;stroke-width:1;stroke-linecap:butt;stroke-linejoin:miter;marker:none;marker-start:none;marker-mid:none;marker-end:none;stroke-miterlimit:10;stroke-dasharray:none;stroke-dashoffset:0;stroke-opacity:1;visibility:visible;display:inline;overflow:visible"
           id="path8660"
           sodipodi:cx="24.837126"
           sodipodi:cy="36.421127"
           sodipodi:rx="15.644737"
           sodipodi:ry="8.3968935"
           d="M 40.481863 36.421127 A 15.644737 8.3968935 0 1 1  9.1923885,36.421127 A 15.644737 8.3968935 0 1 1  40.481863 36.421127 z"
           transform="matrix(1.13019,0,0,-0.759601,-3.909725,53.66554)" />
        <path
           sodipodi:nodetypes="ccccccc"
           id="path1432"
           d="M 3.2034501,25.835194 C 2.1729477,-5.3853369 28.741616,-0.4511153 28.582416,15.788689 L 35.89533,15.788689 L 24.517652,28.774671 L 12.585426,15.788689 C 12.585426,15.788689 20.126859,15.788689 20.126859,15.788689 C 20.583921,4.8193225 3.4092324,1.6100346 3.2034501,25.835194 z "
           style="opacity:1;color:#000000;fill:url(#linearGradient6907);fill-opacity:1;fill-rule:nonzero;stroke:url(#linearGradient6931);stroke-width:0.99999982;stroke-linecap:butt;stroke-linejoin:miter;marker:none;marker-start:none;marker-mid:none;marker-end:none;stroke-miterlimit:4;stroke-dasharray:none;stroke-dashoffset:0;stroke-opacity:1;visibility:visible;display:block;overflow:visible" />
        <path
           style="opacity:0.47159089;color:#000000;fill:none;fill-opacity:1;fill-rule:nonzero;stroke:url(#linearGradient1764);stroke-width:0.99999934;stroke-linecap:butt;stroke-linejoin:miter;marker:none;marker-start:none;marker-mid:none;marker-end:none;stroke-miterlimit:10;stroke-dasharray:none;stroke-dashoffset:0;stroke-opacity:1;visibility:visible;display:block;overflow:visible"
           d="M 7.6642103,9.1041047 C 12.40638,-0.0400306 28.122336,2.7175443 27.761604,16.579393 L 34.078976,16.579393 C 34.078976,16.579393 24.513151,27.536769 24.513151,27.536769 L 14.41668,16.579393 C 14.41668,16.579393 20.87332,16.579393 20.87332,16.579393 C 21.144975,5.0041615 10.922265,5.5345215 7.6642103,9.1041047 z "
           id="path2177"
           sodipodi:nodetypes="ccccccc" />
        <path
           sodipodi:nodetypes="cccccccc"
           id="path4989"
           d="M 34.767155,16.211613 L 32.782979,18.757322 C 27.372947,17.241029 24.896829,21.486664 17.109284,20.489112 L 13.247998,16.080077 L 20.434468,16.162862 C 20.483219,4.3164571 8.3443098,4.998966 5.0292663,13.627829 C 8.8372201,-1.2611216 27.893316,0.8064118 28.28332,16.114112 L 34.767155,16.211613 z "
           style="opacity:0.49431817;color:#000000;fill:url(#radialGradient4997);fill-opacity:1;fill-rule:nonzero;stroke:none;stroke-width:0.9999997;stroke-linecap:butt;stroke-linejoin:miter;marker:none;marker-start:none;marker-mid:none;marker-end:none;stroke-miterlimit:10;stroke-dasharray:none;stroke-dashoffset:0;stroke-opacity:1;visibility:visible;display:inline;overflow:visible" />
      </g>
    </g>
    <text
       xml:space="preserve"
       style="font-size:14px;font-style:normal;font-variant:normal;font-weight:normal;font-stretch:normal;text-align:start;line-height:125%;writing-mode:lr-tb;text-anchor:start;fill:#000000;fill-opacity:1;stroke:none;stroke-width:1px;stroke-linecap:butt;stroke-linejoin:miter;stroke-opacity:1;font-family:Bitstream Vera Serif"
       x="216.38477"
       y="311.21924"
       id="text13786"
       sodipodi:linespacing="125%"><tspan
         sodipodi:role="line"
         x="216.38477"
         y="311.21924"
         id="tspan14761">Download</tspan></text>
    <text
       xml:space="preserve"
       style="font-size:12px;font-style:normal;font-variant:normal;font-weight:normal;font-stretch:normal;text-align:start;line-height:125%;writing-mode:lr-tb;text-anchor:start;fill:#2e3436;fill-opacity:1;stroke:none;stroke-width:1px;stroke-linecap:butt;stroke-linejoin:miter;stroke-opacity:1;font-family:Bitstream Vera Serif"
       x="217"
       y="329"
       id="text14765"
       sodipodi:linespacing="125%"><tspan
         sodipodi:role="line"
         id="tspan14767"
         x="217"
         y="329">JoCone 0.1-beta</tspan></text>
    <text
       xml:space="preserve"
       style="font-size:10px;font-style:normal;font-variant:normal;font-weight:normal;font-stretch:normal;text-align:start;line-height:125%;writing-mode:lr-tb;text-anchor:start;fill:#888a85;fill-opacity:1;stroke:none;stroke-width:1px;stroke-linecap:butt;stroke-linejoin:miter;stroke-opacity:1;font-family:Bitstream Vera Serif"
       x="733"
       y="477"
       id="text18673"
       sodipodi:linespacing="125%"><tspan
         sodipodi:role="line"
         id="tspan18675"
         x="733"
         y="477">CC by Kore Nordmann</tspan></text>
  </g>
</svg>
